<svg width="79" height="40" viewBox="0 0 79 40" fill="none" xmlns="http://www.w3.org/2000/svg">
<rect width="79" height="40" rx="20" fill="white"/>
<path d="M29.1219 27H26.6819L25.5419 23.86H19.8819L18.7419 27H16.3819L21.6419 13H23.8819L29.1219 27ZM24.7819 21.72L22.7219 15.98L20.6419 21.72H24.7819ZM38.2581 27L35.2581 21.64H32.9381V27H30.6181V13H35.9981C36.8781 13 37.6648 13.1933 38.3581 13.58C39.0648 13.9533 39.6115 14.4733 39.9981 15.14C40.3981 15.7933 40.5981 16.5333 40.5981 17.36C40.5981 18.2667 40.3248 19.08 39.7781 19.8C39.2315 20.5067 38.4981 21.0133 37.5781 21.32L40.9381 27H38.2581ZM32.9381 15.2V19.52H35.9581C36.6381 19.52 37.1915 19.32 37.6181 18.92C38.0581 18.5067 38.2781 17.9933 38.2781 17.38C38.2781 16.7533 38.0581 16.2333 37.6181 15.82C37.1915 15.4067 36.6381 15.2 35.9581 15.2H32.9381Z" fill="#F55905"/>
<path d="M58 30C56.6333 30 55.3417 29.7375 54.125 29.2125C52.9083 28.6875 51.8458 27.9708 50.9375 27.0625C50.0292 26.1542 49.3125 25.0917 48.7875 23.875C48.2625 22.6583 48 21.3667 48 20C48 18.6167 48.2625 17.3208 48.7875 16.1125C49.3125 14.9042 50.0292 13.8458 50.9375 12.9375C51.8458 12.0292 52.9083 11.3125 54.125 10.7875C55.3417 10.2625 56.6333 10 58 10C59.3833 10 60.6792 10.2625 61.8875 10.7875C63.0958 11.3125 64.1542 12.0292 65.0625 12.9375C65.9708 13.8458 66.6875 14.9042 67.2125 16.1125C67.7375 17.3208 68 18.6167 68 20C68 21.3667 67.7375 22.6583 67.2125 23.875C66.6875 25.0917 65.9708 26.1542 65.0625 27.0625C64.1542 27.9708 63.0958 28.6875 61.8875 29.2125C60.6792 29.7375 59.3833 30 58 30ZM58 27.95C58.4333 27.35 58.8083 26.725 59.125 26.075C59.4417 25.425 59.7 24.7333 59.9 24H56.1C56.3 24.7333 56.5583 25.425 56.875 26.075C57.1917 26.725 57.5667 27.35 58 27.95ZM55.4 27.55C55.1 27 54.8375 26.4292 54.6125 25.8375C54.3875 25.2458 54.2 24.6333 54.05 24H51.1C51.5833 24.8333 52.1875 25.5583 52.9125 26.175C53.6375 26.7917 54.4667 27.25 55.4 27.55ZM60.6 27.55C61.5333 27.25 62.3625 26.7917 63.0875 26.175C63.8125 25.5583 64.4167 24.8333 64.9 24H61.95C61.8 24.6333 61.6125 25.2458 61.3875 25.8375C61.1625 26.4292 60.9 27 60.6 27.55ZM50.25 22H53.65C53.6 21.6667 53.5625 21.3375 53.5375 21.0125C53.5125 20.6875 53.5 20.35 53.5 20C53.5 19.65 53.5125 19.3125 53.5375 18.9875C53.5625 18.6625 53.6 18.3333 53.65 18H50.25C50.1667 18.3333 50.1042 18.6625 50.0625 18.9875C50.0208 19.3125 50 19.65 50 20C50 20.35 50.0208 20.6875 50.0625 21.0125C50.1042 21.3375 50.1667 21.6667 50.25 22ZM55.65 22H60.35C60.4 21.6667 60.4375 21.3375 60.4625 21.0125C60.4875 20.6875 60.5 20.35 60.5 20C60.5 19.65 60.4875 19.3125 60.4625 18.9875C60.4375 18.6625 60.4 18.3333 60.35 18H55.65C55.6 18.3333 55.5625 18.6625 55.5375 18.9875C55.5125 19.3125 55.5 19.65 55.5 20C55.5 20.35 55.5125 20.6875 55.5375 21.0125C55.5625 21.3375 55.6 21.6667 55.65 22ZM62.35 22H65.75C65.8333 21.6667 65.8958 21.3375 65.9375 21.0125C65.9792 20.6875 66 20.35 66 20C66 19.65 65.9792 19.3125 65.9375 18.9875C65.8958 18.6625 65.8333 18.3333 65.75 18H62.35C62.4 18.3333 62.4375 18.6625 62.4625 18.9875C62.4875 19.3125 62.5 19.65 62.5 20C62.5 20.35 62.4875 20.6875 62.4625 21.0125C62.4375 21.3375 62.4 21.6667 62.35 22ZM61.95 16H64.9C64.4167 15.1667 63.8125 14.4417 63.0875 13.825C62.3625 13.2083 61.5333 12.75 60.6 12.45C60.9 13 61.1625 13.5708 61.3875 14.1625C61.6125 14.7542 61.8 15.3667 61.95 16ZM56.1 16H59.9C59.7 15.2667 59.4417 14.575 59.125 13.925C58.8083 13.275 58.4333 12.65 58 12.05C57.5667 12.65 57.1917 13.275 56.875 13.925C56.5583 14.575 56.3 15.2667 56.1 16ZM51.1 16H54.05C54.2 15.3667 54.3875 14.7542 54.6125 14.1625C54.8375 13.5708 55.1 13 55.4 12.45C54.4667 12.75 53.6375 13.2083 52.9125 13.825C52.1875 14.4417 51.5833 15.1667 51.1 16Z" fill="#F55905"/>
</svg>
