<svg width="85" height="76" viewBox="0 0 85 76" fill="none" xmlns="http://www.w3.org/2000/svg">
<g clip-path="url(#clip0_2_465)">
<path d="M10.4698 35.2C10.4698 17.28 24.9998 0.209961 42.9098 0.209961C60.8198 0.209961 75.3498 12.19 75.3498 30.1L10.4698 35.2Z" fill="#FF5900"/>
<path d="M75.3498 75.9499L11.4498 73.4099V64.7399L75.3498 62.1899V75.9499Z" fill="#FF5900"/>
<path d="M84.0266 49.6291L0.545532 53.2594L0.815326 59.4635L84.2964 55.8333L84.0266 49.6291Z" fill="#411517"/>
<path d="M16.37 50.0799C12.19 50.0799 9.67999 48.7699 7.62999 47.6899C5.63999 46.6499 4.05999 45.8299 0.769985 46.0399L0.359985 39.8399C5.38999 39.5099 8.22999 40.9899 10.51 42.1799C12.5 43.2199 14.08 44.0399 17.37 43.8299C20.67 43.6099 22.12 42.5899 23.96 41.2999C26.06 39.8199 28.67 37.9799 33.71 37.6499C38.77 37.3199 41.58 38.7999 43.86 39.9899C45.85 41.0299 47.41 41.8499 50.72 41.6399C54.02 41.4199 55.47 40.3999 57.31 39.1099C59.41 37.6299 62.03 35.7899 67.07 35.4599C72.13 35.1299 74.95 36.6099 77.22 37.7999C79.21 38.8399 80.79 39.6599 84.08 39.4499L84.49 45.6499C79.46 45.9799 76.62 44.4999 74.34 43.3099C72.35 42.2699 70.77 41.4499 67.48 41.6599C64.18 41.8799 62.73 42.8999 60.89 44.1899C58.79 45.6699 56.17 47.5099 51.13 47.8399C46.09 48.1799 43.26 46.6899 40.98 45.4999C38.99 44.4599 37.41 43.6399 34.12 43.8499C30.82 44.0699 29.37 45.0899 27.53 46.3799C25.43 47.8599 22.81 49.6999 17.77 50.0299C17.28 50.0599 16.82 50.0799 16.37 50.0799Z" fill="#411517"/>
</g>
<defs>
<clipPath id="clip0_2_465">
<rect width="84.12" height="75.74" fill="white" transform="translate(0.359985 0.209961)"/>
</clipPath>
</defs>
</svg>
