<svg width="120" height="120" viewBox="0 0 120 120" fill="none" xmlns="http://www.w3.org/2000/svg">
<path d="M28.8326 44.3398L3.88795 48.5695L6.78769 58.986H26.7877L28.8326 44.3398Z" fill="#411517"/>
<path d="M35.2877 58.4861L37.3093 42.9011L62.7913 38.5847L59.7877 56.4861L35.2877 58.4861Z" fill="#411517"/>
<path d="M94.7564 52.0711L68.2877 55.9861L70.8345 37.2153L95.7877 32.9861L94.7564 52.0711Z" fill="#411517"/>
<path d="M94.7877 51.4861L6.78769 58.9861L24.2955 112.986L92.484 106.208L94.7877 51.4861Z" fill="#FF5900"/>
<path d="M52.3689 94.9917L46.1711 66.7717L68.0925 78.0415L52.3689 94.9917Z" fill="#F4EDE3"/>
<path d="M86.1646 7.01394L84.707 20.0326L91.4846 20.7915L92.9423 7.77282L86.1646 7.01394Z" fill="#411517"/>
<path d="M112.319 20.0325L101.432 27.3181L105.225 32.9861L116.112 25.7005L112.319 20.0325Z" fill="#411517"/>
</svg>
