<svg width="117" height="34" viewBox="0 0 117 34" fill="none" xmlns="http://www.w3.org/2000/svg">
<path d="M117 31.1427L52.0966 33.6377L0 28.3561V0.956055L52.0966 6.23773L117 3.74269V31.1427Z" fill="#411517"/>
<path d="M6.54 24.2969V10.2969H10.78C12.0467 10.2969 13.2067 10.6102 14.26 11.2369C15.3133 11.8502 16.1467 12.6902 16.76 13.7569C17.3733 14.8235 17.68 16.0035 17.68 17.2969C17.68 18.5902 17.3667 19.7769 16.74 20.8569C16.1267 21.9235 15.2933 22.7635 14.24 23.3769C13.1867 23.9902 12.0333 24.2969 10.78 24.2969H6.54ZM10.78 22.0769C11.5933 22.0769 12.3467 21.8702 13.04 21.4569C13.7467 21.0302 14.3067 20.4569 14.72 19.7369C15.1467 19.0035 15.36 18.1902 15.36 17.2969C15.36 16.4035 15.1467 15.5969 14.72 14.8769C14.3067 14.1435 13.7467 13.5702 13.04 13.1569C12.3467 12.7302 11.5933 12.5169 10.78 12.5169H8.86V22.0769H10.78ZM24.138 24.5369C23.2313 24.5369 22.3913 24.3035 21.618 23.8369C20.858 23.3569 20.2513 22.7102 19.798 21.8969C19.3446 21.0835 19.118 20.1969 19.118 19.2369C19.118 18.2635 19.3446 17.3769 19.798 16.5769C20.2513 15.7635 20.858 15.1235 21.618 14.6569C22.3913 14.1769 23.2313 13.9369 24.138 13.9369C25.0446 13.9369 25.878 14.1769 26.638 14.6569C27.4113 15.1235 28.0246 15.7635 28.478 16.5769C28.9313 17.3769 29.158 18.2635 29.158 19.2369C29.158 20.1969 28.9313 21.0835 28.478 21.8969C28.0246 22.7102 27.4113 23.3569 26.638 23.8369C25.878 24.3035 25.0446 24.5369 24.138 24.5369ZM24.138 22.4969C24.658 22.4969 25.1313 22.3569 25.558 22.0769C25.998 21.7969 26.3446 21.4102 26.598 20.9169C26.8513 20.4235 26.978 19.8635 26.978 19.2369C26.978 18.6102 26.8513 18.0502 26.598 17.5569C26.3446 17.0635 25.998 16.6769 25.558 16.3969C25.1313 16.1169 24.658 15.9769 24.138 15.9769C23.618 15.9769 23.138 16.1169 22.698 16.3969C22.2713 16.6769 21.9313 17.0635 21.678 17.5569C21.4246 18.0502 21.298 18.6102 21.298 19.2369C21.298 19.8635 21.4246 20.4235 21.678 20.9169C21.9313 21.4102 22.2713 21.7969 22.698 22.0769C23.138 22.3569 23.618 22.4969 24.138 22.4969ZM31.1433 24.2969V14.1769H32.7833L33.1833 15.2969H33.2833C33.5099 14.9902 33.8699 14.6902 34.3633 14.3969C34.8699 14.0902 35.4566 13.9369 36.1233 13.9369C36.9099 13.9369 37.6099 14.1235 38.2233 14.4969C38.8366 14.8569 39.3166 15.3702 39.6633 16.0369C40.0099 16.7035 40.1833 17.4769 40.1833 18.3569V24.2969H38.0033V18.5169C38.0033 17.7702 37.7833 17.1635 37.3433 16.6969C36.9166 16.2169 36.3633 15.9769 35.6833 15.9769C34.9899 15.9769 34.4233 16.2169 33.9833 16.6969C33.5566 17.1635 33.3433 17.7702 33.3433 18.5169V24.2969H31.1433ZM46.4472 13.9369C47.6739 13.9369 48.6539 14.3169 49.3872 15.0769C50.1205 15.8235 50.4872 16.8169 50.4872 18.0569V24.2969H48.8472L48.4472 23.1569H48.3472C48.0672 23.5169 47.6805 23.8369 47.1872 24.1169C46.7072 24.3969 46.1072 24.5369 45.3872 24.5369C44.7472 24.5369 44.1672 24.4035 43.6472 24.1369C43.1272 23.8569 42.7205 23.4902 42.4272 23.0369C42.1339 22.5702 41.9872 22.0635 41.9872 21.5169C41.9872 20.8502 42.1805 20.2702 42.5672 19.7769C42.9672 19.2702 43.5205 18.8835 44.2272 18.6169C44.9472 18.3502 45.7672 18.2169 46.6872 18.2169H48.3072V17.8769C48.3072 17.2769 48.1339 16.8035 47.7872 16.4569C47.4539 16.0969 47.0005 15.9169 46.4272 15.9169C45.9205 15.9169 45.5139 16.0502 45.2072 16.3169C44.9005 16.5702 44.7139 16.8835 44.6472 17.2569H42.4472C42.5139 16.6702 42.7072 16.1235 43.0272 15.6169C43.3605 15.1102 43.8205 14.7035 44.4072 14.3969C44.9939 14.0902 45.6739 13.9369 46.4472 13.9369ZM45.8472 22.6769C46.5805 22.6769 47.1739 22.4569 47.6272 22.0169C48.0805 21.5769 48.3072 21.0502 48.3072 20.4369V19.7969H46.7072C45.8672 19.7969 45.2339 19.9369 44.8072 20.2169C44.3939 20.4835 44.1872 20.8569 44.1872 21.3369C44.1872 21.7369 44.3272 22.0635 44.6072 22.3169C44.9005 22.5569 45.3139 22.6769 45.8472 22.6769ZM56.6048 24.5369C55.6582 24.5369 54.8915 24.2235 54.3048 23.5969C53.7182 22.9702 53.4248 22.1102 53.4248 21.0169V16.1569H51.7648V14.2969H52.4848C52.8848 14.2969 53.1848 14.1969 53.3848 13.9969C53.5982 13.7835 53.7048 13.4835 53.7048 13.0969V11.5769H55.6048V14.1769H57.8048V16.1569H55.6048V20.8369C55.6048 21.3835 55.7382 21.7969 56.0048 22.0769C56.2715 22.3435 56.6382 22.4769 57.1048 22.4769C57.3848 22.4769 57.6182 22.4302 57.8048 22.3369V24.3369C57.4582 24.4702 57.0582 24.5369 56.6048 24.5369ZM68.8208 19.0169C68.8208 19.4435 68.7808 19.8035 68.7008 20.0969H61.2008C61.3341 20.8569 61.6541 21.4569 62.1608 21.8969C62.6674 22.3369 63.2808 22.5569 64.0008 22.5569C64.5208 22.5569 64.9608 22.4569 65.3208 22.2569C65.6808 22.0569 65.9674 21.8035 66.1808 21.4969H68.4608C68.2608 22.0035 67.9474 22.4902 67.5208 22.9569C67.1074 23.4235 66.5941 23.8035 65.9808 24.0969C65.3808 24.3902 64.7274 24.5369 64.0208 24.5369C63.1008 24.5369 62.2541 24.3035 61.4808 23.8369C60.7208 23.3702 60.1141 22.7369 59.6608 21.9369C59.2208 21.1235 59.0008 20.2235 59.0008 19.2369C59.0008 18.2635 59.2274 17.3769 59.6808 16.5769C60.1341 15.7635 60.7408 15.1235 61.5008 14.6569C62.2741 14.1769 63.1074 13.9369 64.0008 13.9369C64.8941 13.9369 65.7074 14.1635 66.4408 14.6169C67.1741 15.0569 67.7541 15.6635 68.1808 16.4369C68.6074 17.2102 68.8208 18.0702 68.8208 19.0169ZM64.0008 15.9169C63.3074 15.9169 62.7008 16.1502 62.1808 16.6169C61.6608 17.0702 61.3341 17.6769 61.2008 18.4369H66.6808C66.5608 17.6902 66.2541 17.0835 65.7608 16.6169C65.2674 16.1502 64.6808 15.9169 64.0008 15.9169ZM75.323 24.2969V14.1769H76.963L77.363 15.2969H77.463C77.6896 14.9902 78.0496 14.6902 78.543 14.3969C79.0496 14.0902 79.6363 13.9369 80.303 13.9369C81.0896 13.9369 81.7896 14.1235 82.403 14.4969C83.0163 14.8569 83.4963 15.3702 83.843 16.0369C84.1896 16.7035 84.363 17.4769 84.363 18.3569V24.2969H82.183V18.5169C82.183 17.7702 81.963 17.1635 81.523 16.6969C81.0963 16.2169 80.543 15.9769 79.863 15.9769C79.1696 15.9769 78.603 16.2169 78.163 16.6969C77.7363 17.1635 77.523 17.7702 77.523 18.5169V24.2969H75.323ZM91.2669 24.5369C90.3602 24.5369 89.5202 24.3035 88.7469 23.8369C87.9869 23.3569 87.3802 22.7102 86.9269 21.8969C86.4735 21.0835 86.2469 20.1969 86.2469 19.2369C86.2469 18.2635 86.4735 17.3769 86.9269 16.5769C87.3802 15.7635 87.9869 15.1235 88.7469 14.6569C89.5202 14.1769 90.3602 13.9369 91.2669 13.9369C92.1735 13.9369 93.0069 14.1769 93.7669 14.6569C94.5402 15.1235 95.1535 15.7635 95.6069 16.5769C96.0602 17.3769 96.2869 18.2635 96.2869 19.2369C96.2869 20.1969 96.0602 21.0835 95.6069 21.8969C95.1535 22.7102 94.5402 23.3569 93.7669 23.8369C93.0069 24.3035 92.1735 24.5369 91.2669 24.5369ZM91.2669 22.4969C91.7869 22.4969 92.2602 22.3569 92.6869 22.0769C93.1269 21.7969 93.4735 21.4102 93.7269 20.9169C93.9802 20.4235 94.1069 19.8635 94.1069 19.2369C94.1069 18.6102 93.9802 18.0502 93.7269 17.5569C93.4735 17.0635 93.1269 16.6769 92.6869 16.3969C92.2602 16.1169 91.7869 15.9769 91.2669 15.9769C90.7469 15.9769 90.2669 16.1169 89.8269 16.3969C89.4002 16.6769 89.0602 17.0635 88.8069 17.5569C88.5535 18.0502 88.4269 18.6102 88.4269 19.2369C88.4269 19.8635 88.5535 20.4235 88.8069 20.9169C89.0602 21.4102 89.4002 21.7969 89.8269 22.0769C90.2669 22.3569 90.7469 22.4969 91.2669 22.4969ZM106.84 21.0569L108.96 14.1769H111.14L107.8 24.2969H105.98L103.92 17.8769L101.9 24.2969H100.08L96.7397 14.1769H98.9997L101.1 21.0169L103.28 14.1769H104.66L106.84 21.0569Z" fill="#F4EDE3"/>
</svg>
