<svg width="104" height="34" viewBox="0 0 104 34" fill="none" xmlns="http://www.w3.org/2000/svg">
<path d="M104 30.9552L46.3081 33.4502L0 28.1686V0.768555L46.3081 6.05023L104 3.55519V30.9552Z" fill="#411517"/>
<path d="M12.48 24.3494C11.28 24.3494 10.16 24.0294 9.12 23.3894C8.09333 22.7494 7.27333 21.876 6.66 20.7694C6.04667 19.6627 5.74 18.4427 5.74 17.1094C5.74 15.776 6.04667 14.556 6.66 13.4494C7.27333 12.3427 8.09333 11.4694 9.12 10.8294C10.16 10.1894 11.28 9.86937 12.48 9.86937C13.68 9.86937 14.7933 10.1894 15.82 10.8294C16.86 11.4694 17.6867 12.3427 18.3 13.4494C18.9133 14.556 19.22 15.776 19.22 17.1094C19.22 18.4427 18.9133 19.6627 18.3 20.7694C17.6867 21.876 16.86 22.7494 15.82 23.3894C14.7933 24.0294 13.68 24.3494 12.48 24.3494ZM12.48 22.1294C13.2667 22.1294 13.9933 21.916 14.66 21.4894C15.34 21.0494 15.88 20.4494 16.28 19.6894C16.6933 18.9294 16.9 18.0694 16.9 17.1094C16.9 16.1494 16.6933 15.2894 16.28 14.5294C15.88 13.7694 15.34 13.176 14.66 12.7494C13.9933 12.3094 13.2667 12.0894 12.48 12.0894C11.6933 12.0894 10.96 12.3094 10.28 12.7494C9.61333 13.176 9.07333 13.7694 8.66 14.5294C8.26 15.2894 8.06 16.1494 8.06 17.1094C8.06 18.0694 8.26 18.9294 8.66 19.6894C9.07333 20.4494 9.61333 21.0494 10.28 21.4894C10.96 21.916 11.6933 22.1294 12.48 22.1294ZM21.2409 24.1094V13.9894H22.8809L23.2809 15.1094H23.3809C23.5943 14.8027 23.9209 14.5027 24.3609 14.2094C24.8009 13.9027 25.3076 13.7494 25.8809 13.7494C26.2143 13.7494 26.4943 13.776 26.7209 13.8294V16.0294C26.4676 15.976 26.1676 15.9494 25.8209 15.9494C25.1143 15.9494 24.5409 16.176 24.1009 16.6294C23.6609 17.0827 23.4409 17.7094 23.4409 18.5094V24.1094H21.2409ZM31.903 24.3494C31.0763 24.3494 30.303 24.1227 29.583 23.6694C28.8763 23.2027 28.3096 22.5694 27.883 21.7694C27.4563 20.956 27.243 20.0494 27.243 19.0494C27.243 18.0494 27.4563 17.1494 27.883 16.3494C28.3096 15.536 28.8763 14.9027 29.583 14.4494C30.303 13.9827 31.0763 13.7494 31.903 13.7494C32.3696 13.7494 32.803 13.8294 33.203 13.9894C33.6163 14.136 33.9563 14.316 34.223 14.5294C34.4896 14.7294 34.6696 14.9027 34.763 15.0494H34.863V10.1094H37.063V24.1094H35.423L35.023 22.9694H34.923C34.7096 23.2627 34.3296 23.5694 33.783 23.8894C33.2363 24.196 32.6096 24.3494 31.903 24.3494ZM32.143 22.3094C32.6363 22.3094 33.0896 22.176 33.503 21.9094C33.9163 21.6294 34.243 21.2427 34.483 20.7494C34.7363 20.2427 34.863 19.676 34.863 19.0494C34.863 18.4227 34.7363 17.8627 34.483 17.3694C34.243 16.8627 33.9163 16.476 33.503 16.2094C33.0896 15.9294 32.6363 15.7894 32.143 15.7894C31.6496 15.7894 31.1963 15.9294 30.783 16.2094C30.3696 16.476 30.0363 16.8627 29.783 17.3694C29.543 17.8627 29.423 18.4227 29.423 19.0494C29.423 19.676 29.543 20.2427 29.783 20.7494C30.0363 21.2427 30.3696 21.6294 30.783 21.9094C31.1963 22.176 31.6496 22.3094 32.143 22.3094ZM48.9575 18.8294C48.9575 19.256 48.9175 19.616 48.8375 19.9094H41.3375C41.4708 20.6694 41.7908 21.2694 42.2975 21.7094C42.8042 22.1494 43.4175 22.3694 44.1375 22.3694C44.6575 22.3694 45.0975 22.2694 45.4575 22.0694C45.8175 21.8694 46.1042 21.616 46.3175 21.3094H48.5975C48.3975 21.816 48.0842 22.3027 47.6575 22.7694C47.2442 23.236 46.7308 23.616 46.1175 23.9094C45.5175 24.2027 44.8642 24.3494 44.1575 24.3494C43.2375 24.3494 42.3908 24.116 41.6175 23.6494C40.8575 23.1827 40.2508 22.5494 39.7975 21.7494C39.3575 20.936 39.1375 20.036 39.1375 19.0494C39.1375 18.076 39.3642 17.1894 39.8175 16.3894C40.2708 15.576 40.8775 14.936 41.6375 14.4694C42.4108 13.9894 43.2442 13.7494 44.1375 13.7494C45.0308 13.7494 45.8442 13.976 46.5775 14.4294C47.3108 14.8694 47.8908 15.476 48.3175 16.2494C48.7442 17.0227 48.9575 17.8827 48.9575 18.8294ZM44.1375 15.7294C43.4442 15.7294 42.8375 15.9627 42.3175 16.4294C41.7975 16.8827 41.4708 17.4894 41.3375 18.2494H46.8175C46.6975 17.5027 46.3908 16.896 45.8975 16.4294C45.4042 15.9627 44.8175 15.7294 44.1375 15.7294ZM50.9089 24.1094V13.9894H52.5489L52.9489 15.1094H53.0489C53.2622 14.8027 53.5889 14.5027 54.0289 14.2094C54.4689 13.9027 54.9756 13.7494 55.5489 13.7494C55.8822 13.7494 56.1622 13.776 56.3889 13.8294V16.0294C56.1356 15.976 55.8356 15.9494 55.4889 15.9494C54.7822 15.9494 54.2089 16.176 53.7689 16.6294C53.3289 17.0827 53.1089 17.7094 53.1089 18.5094V24.1094H50.9089ZM62.4323 24.1094V13.9894H64.0723L64.4723 15.1094H64.5723C64.799 14.8027 65.159 14.5027 65.6523 14.2094C66.159 13.9027 66.7457 13.7494 67.4123 13.7494C68.199 13.7494 68.899 13.936 69.5123 14.3094C70.1257 14.6694 70.6057 15.1827 70.9523 15.8494C71.299 16.516 71.4723 17.2894 71.4723 18.1694V24.1094H69.2923V18.3294C69.2923 17.5827 69.0723 16.976 68.6323 16.5094C68.2057 16.0294 67.6523 15.7894 66.9723 15.7894C66.279 15.7894 65.7123 16.0294 65.2723 16.5094C64.8457 16.976 64.6323 17.5827 64.6323 18.3294V24.1094H62.4323ZM78.3763 24.3494C77.4696 24.3494 76.6296 24.116 75.8563 23.6494C75.0963 23.1694 74.4896 22.5227 74.0363 21.7094C73.5829 20.896 73.3563 20.0094 73.3563 19.0494C73.3563 18.076 73.5829 17.1894 74.0363 16.3894C74.4896 15.576 75.0963 14.936 75.8563 14.4694C76.6296 13.9894 77.4696 13.7494 78.3763 13.7494C79.2829 13.7494 80.1163 13.9894 80.8763 14.4694C81.6496 14.936 82.2629 15.576 82.7163 16.3894C83.1696 17.1894 83.3963 18.076 83.3963 19.0494C83.3963 20.0094 83.1696 20.896 82.7163 21.7094C82.2629 22.5227 81.6496 23.1694 80.8763 23.6494C80.1163 24.116 79.2829 24.3494 78.3763 24.3494ZM78.3763 22.3094C78.8963 22.3094 79.3696 22.1694 79.7963 21.8894C80.2363 21.6094 80.5829 21.2227 80.8363 20.7294C81.0896 20.236 81.2163 19.676 81.2163 19.0494C81.2163 18.4227 81.0896 17.8627 80.8363 17.3694C80.5829 16.876 80.2363 16.4894 79.7963 16.2094C79.3696 15.9294 78.8963 15.7894 78.3763 15.7894C77.8563 15.7894 77.3763 15.9294 76.9363 16.2094C76.5096 16.4894 76.1696 16.876 75.9163 17.3694C75.6629 17.8627 75.5363 18.4227 75.5363 19.0494C75.5363 19.676 75.6629 20.236 75.9163 20.7294C76.1696 21.2227 76.5096 21.6094 76.9363 21.8894C77.3763 22.1694 77.8563 22.3094 78.3763 22.3094ZM93.9491 20.8694L96.0691 13.9894H98.2491L94.9091 24.1094H93.0891L91.0291 17.6894L89.0091 24.1094H87.1891L83.8491 13.9894H86.1091L88.2091 20.8294L90.3891 13.9894H91.7691L93.9491 20.8694Z" fill="#F4EDE3"/>
</svg>
