<svg width="98" height="34" viewBox="0 0 98 34" fill="none" xmlns="http://www.w3.org/2000/svg">
<path d="M98 31.0333L43.6365 33.5284L0 28.2467V0.84668L43.6365 6.12836L98 3.63332V31.0333Z" fill="#411517"/>
<path d="M10.84 24.4275C9.82667 24.4275 8.94 24.2342 8.18 23.8475C7.42 23.4608 6.82667 22.9275 6.4 22.2475C5.98667 21.5542 5.76 20.7675 5.72 19.8875H8.04C8.10667 20.6342 8.38 21.2275 8.86 21.6675C9.35333 22.1075 10.02 22.3275 10.86 22.3275C11.66 22.3275 12.2733 22.1542 12.7 21.8075C13.14 21.4608 13.36 21.0208 13.36 20.4875C13.36 20.0608 13.2267 19.7075 12.96 19.4275C12.7067 19.1342 12.38 18.9008 11.98 18.7275C11.58 18.5542 11.0333 18.3475 10.34 18.1075C9.43333 17.8008 8.69333 17.5075 8.12 17.2275C7.54667 16.9342 7.05333 16.5208 6.64 15.9875C6.24 15.4408 6.04 14.7342 6.04 13.8675C6.04 13.1208 6.22667 12.4542 6.6 11.8675C6.97333 11.2675 7.50667 10.8008 8.2 10.4675C8.90667 10.1208 9.73333 9.9475 10.68 9.9475C11.6133 9.9475 12.4333 10.1408 13.14 10.5275C13.86 10.9142 14.42 11.4475 14.82 12.1275C15.22 12.7942 15.44 13.5408 15.48 14.3675H13.16C13.12 13.6742 12.88 13.1142 12.44 12.6875C12 12.2608 11.4133 12.0475 10.68 12.0475C9.94667 12.0475 9.37333 12.2208 8.96 12.5675C8.56 12.9142 8.36 13.3608 8.36 13.9075C8.36 14.3208 8.48667 14.6675 8.74 14.9475C9.00667 15.2142 9.33333 15.4342 9.72 15.6075C10.12 15.7808 10.66 15.9742 11.34 16.1875C12.2733 16.4942 13.02 16.7875 13.58 17.0675C14.1533 17.3342 14.6467 17.7408 15.06 18.2875C15.4733 18.8342 15.68 19.5475 15.68 20.4275C15.68 21.2008 15.4867 21.8875 15.1 22.4875C14.7267 23.0875 14.1733 23.5608 13.44 23.9075C12.72 24.2542 11.8533 24.4275 10.84 24.4275ZM17.6886 24.1875V10.1875H19.8886V15.1875H19.9886C20.2019 14.8808 20.5619 14.5808 21.0686 14.2875C21.5753 13.9808 22.1553 13.8275 22.8086 13.8275C23.5553 13.8275 24.2219 14.0142 24.8086 14.3875C25.4086 14.7475 25.8753 15.2608 26.2086 15.9275C26.5553 16.5942 26.7286 17.3675 26.7286 18.2475V24.1875H24.5486V18.4075C24.5486 17.6608 24.3286 17.0542 23.8886 16.5875C23.4619 16.1075 22.9086 15.8675 22.2286 15.8675C21.5353 15.8675 20.9686 16.1075 20.5286 16.5875C20.1019 17.0542 19.8886 17.6608 19.8886 18.4075V24.1875H17.6886ZM33.6302 24.4275C32.7235 24.4275 31.8835 24.1942 31.1102 23.7275C30.3502 23.2475 29.7435 22.6008 29.2902 21.7875C28.8368 20.9742 28.6102 20.0875 28.6102 19.1275C28.6102 18.1542 28.8368 17.2675 29.2902 16.4675C29.7435 15.6542 30.3502 15.0142 31.1102 14.5475C31.8835 14.0675 32.7235 13.8275 33.6302 13.8275C34.5368 13.8275 35.3702 14.0675 36.1302 14.5475C36.9035 15.0142 37.5168 15.6542 37.9702 16.4675C38.4235 17.2675 38.6502 18.1542 38.6502 19.1275C38.6502 20.0875 38.4235 20.9742 37.9702 21.7875C37.5168 22.6008 36.9035 23.2475 36.1302 23.7275C35.3702 24.1942 34.5368 24.4275 33.6302 24.4275ZM33.6302 22.3875C34.1502 22.3875 34.6235 22.2475 35.0502 21.9675C35.4902 21.6875 35.8368 21.3008 36.0902 20.8075C36.3435 20.3142 36.4702 19.7542 36.4702 19.1275C36.4702 18.5008 36.3435 17.9408 36.0902 17.4475C35.8368 16.9542 35.4902 16.5675 35.0502 16.2875C34.6235 16.0075 34.1502 15.8675 33.6302 15.8675C33.1102 15.8675 32.6302 16.0075 32.1902 16.2875C31.7635 16.5675 31.4235 16.9542 31.1702 17.4475C30.9168 17.9408 30.7902 18.5008 30.7902 19.1275C30.7902 19.7542 30.9168 20.3142 31.1702 20.8075C31.4235 21.3008 31.7635 21.6875 32.1902 21.9675C32.6302 22.2475 33.1102 22.3875 33.6302 22.3875ZM40.6355 27.7875V14.0675H42.2755L42.6755 15.1875H42.7755C43.0021 14.8942 43.3821 14.5942 43.9155 14.2875C44.4621 13.9808 45.0888 13.8275 45.7955 13.8275C46.6221 13.8275 47.3888 14.0608 48.0955 14.5275C48.8155 14.9808 49.3888 15.6142 49.8155 16.4275C50.2421 17.2275 50.4555 18.1275 50.4555 19.1275C50.4555 20.1275 50.2421 21.0342 49.8155 21.8475C49.3888 22.6475 48.8155 23.2808 48.0955 23.7475C47.3888 24.2008 46.6221 24.4275 45.7955 24.4275C45.3288 24.4275 44.8888 24.3475 44.4755 24.1875C44.0755 24.0408 43.7421 23.8675 43.4755 23.6675C43.2088 23.4542 43.0288 23.2742 42.9355 23.1275H42.8355V27.7875H40.6355ZM45.5555 22.3875C46.0488 22.3875 46.5021 22.2542 46.9155 21.9875C47.3288 21.7075 47.6555 21.3208 47.8955 20.8275C48.1488 20.3208 48.2755 19.7542 48.2755 19.1275C48.2755 18.5008 48.1488 17.9408 47.8955 17.4475C47.6555 16.9408 47.3288 16.5542 46.9155 16.2875C46.5021 16.0075 46.0488 15.8675 45.5555 15.8675C45.0621 15.8675 44.6088 16.0075 44.1955 16.2875C43.7821 16.5542 43.4488 16.9408 43.1955 17.4475C42.9555 17.9408 42.8355 18.5008 42.8355 19.1275C42.8355 19.7542 42.9555 20.3208 43.1955 20.8275C43.4488 21.3208 43.7821 21.7075 44.1955 21.9875C44.6088 22.2542 45.0621 22.3875 45.5555 22.3875ZM56.9831 24.1875V14.0675H58.6231L59.0231 15.1875H59.1231C59.3498 14.8808 59.7098 14.5808 60.2031 14.2875C60.7098 13.9808 61.2965 13.8275 61.9631 13.8275C62.7498 13.8275 63.4498 14.0142 64.0631 14.3875C64.6765 14.7475 65.1565 15.2608 65.5031 15.9275C65.8498 16.5942 66.0231 17.3675 66.0231 18.2475V24.1875H63.8431V18.4075C63.8431 17.6608 63.6231 17.0542 63.1831 16.5875C62.7565 16.1075 62.2031 15.8675 61.5231 15.8675C60.8298 15.8675 60.2631 16.1075 59.8231 16.5875C59.3965 17.0542 59.1831 17.6608 59.1831 18.4075V24.1875H56.9831ZM72.927 24.4275C72.0204 24.4275 71.1804 24.1942 70.407 23.7275C69.647 23.2475 69.0404 22.6008 68.587 21.7875C68.1337 20.9742 67.907 20.0875 67.907 19.1275C67.907 18.1542 68.1337 17.2675 68.587 16.4675C69.0404 15.6542 69.647 15.0142 70.407 14.5475C71.1804 14.0675 72.0204 13.8275 72.927 13.8275C73.8337 13.8275 74.667 14.0675 75.427 14.5475C76.2004 15.0142 76.8137 15.6542 77.267 16.4675C77.7204 17.2675 77.947 18.1542 77.947 19.1275C77.947 20.0875 77.7204 20.9742 77.267 21.7875C76.8137 22.6008 76.2004 23.2475 75.427 23.7275C74.667 24.1942 73.8337 24.4275 72.927 24.4275ZM72.927 22.3875C73.447 22.3875 73.9204 22.2475 74.347 21.9675C74.787 21.6875 75.1337 21.3008 75.387 20.8075C75.6404 20.3142 75.767 19.7542 75.767 19.1275C75.767 18.5008 75.6404 17.9408 75.387 17.4475C75.1337 16.9542 74.787 16.5675 74.347 16.2875C73.9204 16.0075 73.447 15.8675 72.927 15.8675C72.407 15.8675 71.927 16.0075 71.487 16.2875C71.0604 16.5675 70.7204 16.9542 70.467 17.4475C70.2137 17.9408 70.087 18.5008 70.087 19.1275C70.087 19.7542 70.2137 20.3142 70.467 20.8075C70.7204 21.3008 71.0604 21.6875 71.487 21.9675C71.927 22.2475 72.407 22.3875 72.927 22.3875ZM88.4998 20.9475L90.6198 14.0675H92.7998L89.4598 24.1875H87.6398L85.5798 17.7675L83.5598 24.1875H81.7398L78.3998 14.0675H80.6598L82.7598 20.9075L84.9398 14.0675H86.3198L88.4998 20.9475Z" fill="#F4EDE3"/>
</svg>
