<?xml version="1.0" standalone="no"?>
<!DOCTYPE svg PUBLIC "-//W3C//DTD SVG 20010904//EN"
 "http://www.w3.org/TR/2001/REC-SVG-20010904/DTD/svg10.dtd">
<svg version="1.0" xmlns="http://www.w3.org/2000/svg"
 width="600.000000pt" height="600.000000pt" viewBox="0 0 600.000000 600.000000"
 preserveAspectRatio="xMidYMid meet">

<g transform="translate(0.000000,600.000000) scale(0.100000,-0.100000)"
fill="#000000" stroke="none">
<path d="M1341 4564 c-662 -68 -1206 -126 -1209 -129 -6 -6 185 -2989 196
-3070 l7 -51 1210 142 1210 143 735 -39 c699 -36 775 -39 1558 -43 l822 -6 -1
352 c-1 714 -25 2707 -33 2714 -4 4 -391 11 -859 14 -834 6 -867 7 -1577 47
-399 23 -754 43 -790 45 -41 3 -510 -41 -1269 -119z m2257 -780 c22 -4 22 -5
22 -197 l0 -192 -107 0 c-98 0 -113 -3 -165 -28 -66 -32 -120 -90 -136 -146
-8 -26 -12 -154 -12 -400 l0 -361 -226 0 -225 0 3 608 c3 658 1 636 58 687 20
18 39 20 186 23 l164 3 0 -65 0 -66 53 43 c106 86 246 119 385 91z m-1435 -22
c169 -61 286 -160 355 -302 51 -104 70 -176 78 -294 16 -233 -76 -474 -229
-597 -128 -103 -266 -144 -455 -137 -134 6 -217 29 -316 89 l-61 37 -6 -182
c-6 -208 -20 -258 -91 -322 -65 -58 -97 -67 -243 -68 l-130 -1 -3 825 -2 826
22 44 c41 80 55 85 254 88 l174 3 0 -71 0 -71 43 34 c55 45 153 94 225 112 86
22 308 14 385 -13z m2454 12 c280 -58 486 -248 538 -499 21 -102 19 -255 -5
-351 -32 -125 -73 -198 -165 -289 -125 -126 -260 -186 -458 -204 -266 -26
-485 41 -649 197 -154 147 -222 361 -189 593 42 286 239 489 536 552 95 21
296 21 392 1z"/>
<path d="M1755 3417 c-85 -22 -148 -64 -196 -130 -29 -39 -29 -42 -29 -170 0
-121 2 -133 25 -173 30 -51 109 -111 173 -130 65 -20 182 -19 245 2 37 12 68
33 108 73 66 67 84 118 84 237 -1 71 -5 90 -31 140 -33 65 -101 124 -165 143
-61 18 -159 22 -214 8z"/>
<path d="M4347 3419 c-56 -13 -108 -43 -148 -86 -59 -62 -72 -97 -77 -203 -5
-118 17 -187 81 -251 65 -65 115 -84 222 -84 109 0 175 25 231 87 126 140 103
389 -45 493 -71 48 -173 66 -264 44z"/>
</g>
</svg>
