<svg width="56" height="57" viewBox="0 0 56 57" fill="none" xmlns="http://www.w3.org/2000/svg">
<rect y="0.0107422" width="56" height="56" rx="16" fill="#FF5900"/>
<path d="M30.7461 26.8063H36.003V24.3224C36.003 22.7847 34.7545 21.615 33.2169 21.615H30.7461V13.0112C28.7134 13.0112 26.4091 12.9367 24.6568 14.6934C22.9834 16.3756 23.2725 18.4915 23.2725 21.615H17.998V24.0245C17.998 25.5621 19.2466 26.8106 20.7842 26.8106H23.2681V30.565L23.3032 34.9852C23.3295 39.4229 26.9348 43.0107 31.3769 43.0107C32.954 43.0107 34.426 42.5551 35.6701 41.771V36.9302C32.7043 37.9948 30.7461 35.835 30.7461 33.1671V26.8106V26.8063Z" fill="white"/>
</svg>
