<?xml version="1.0" encoding="utf-8"?>
<!-- Generator: Adobe Illustrator 27.8.0, SVG Export Plug-In . SVG Version: 6.00 Build 0)  -->
<svg version="1.1" id="Layer_1" xmlns="http://www.w3.org/2000/svg" xmlns:xlink="http://www.w3.org/1999/xlink" x="0px" y="0px"
	 viewBox="0 0 628 584" style="enable-background:new 0 0 628 584;" xml:space="preserve">
<style type="text/css">
	.st0{clip-path:url(#SVGID_00000006681763715892114590000004513087182261652888_);}
	.st1{fill:#FF5A00;stroke:#FFFFFF;stroke-width:3.5963;stroke-miterlimit:10;}
	.st2{fill:#E8E8E8;stroke:#FFFFFF;stroke-width:3.5963;stroke-miterlimit:10;}
	.st3{fill:#FF5A00;stroke:#FF5A00;stroke-width:3.5963;stroke-miterlimit:10;}
</style>
<g>
	<defs>
		<rect id="SVGID_1_" width="627.7" height="584"/>
	</defs>
	<clipPath id="SVGID_00000102535443771366929880000009236272850653012158_">
		<use xlink:href="#SVGID_1_"  style="overflow:visible;"/>
	</clipPath>
	<g style="clip-path:url(#SVGID_00000102535443771366929880000009236272850653012158_);">
		<path class="st1" d="M512.5,355l1.1,1.4l0.2,9.8l0.2,0.7l-0.6,0.1l-0.6,0.7L512,369l-1,0.6l-0.8,0.7l-0.8,0.8l-0.7,0.2l-0.9-1.1
			l-0.6-1.1l0.2-0.2l0.4-0.1l0.2-0.6l-0.3-0.8l-0.6-0.3l-0.8,0l-0.7,0.4l-0.8,0.7l-0.4,0.8l-0.1,1.5l0.2,1.7v0.8l-0.4,1l-0.2,1.5
			l0.3,1.2l0.3,0.7l0,0.6l-0.7,1.9l0.6,0.4l2.1,0.1l0.6,1.3l0.4,0.9l-0.1,0.5l-1.5,0.4l-1.9,0.4l-1.3-0.1l-2.4,0.6l-1.3,0.9l0.4,0.6
			l0.4,0.4l0.2,1.2l-0.4,1.7l-0.7,1.6l-0.8,2l-1,2.3l-1.3,3.5l-1.1,2.7l-0.1,2l0,1.3l-0.1,2.5l-1.1,1.4l-0.2,0l-1.3-0.2l-0.4-0.1
			l-1.2-0.2l-1.9-0.3l-2.5-0.3l-2.9-0.4l-3.3-0.4l-3.5-0.5l-3.6-0.5l-3.6-0.5l-3.5-0.5l-3.3-0.4l-2.9-0.4l-2.5-0.3l-1.9-0.3
			l-1.2-0.2l-0.4-0.1L452,403l-0.7-0.9l-0.9-1.1l-0.9-1.1l-0.9-1.1l-0.9-1.1l-0.9-1.1l-0.9-1.1l-0.9-1.1l-0.9-1.1l-0.9-1.2l-0.9-1.1
			l-0.9-1.2l-0.9-1.2l-0.9-1.2l-0.9-1.1l-0.9-1.2l-0.9-1.2l-0.6-0.8l-0.3-0.9l-0.1-2.3v-0.5l0.6-0.9l0.3,0.7l0.7,0.9l1.1-0.2
			l0.5,0.2l0.4,3.2l0.8,1.1l1,0.4l3.4,0.3l2.1-0.4l4.2-2.1l2.2-0.7l6.1,0.1l4.9,0.9l7.6,0.5l1.5-0.1l4.1-1.7l2.5-1.5l1.5-0.4l1-1.4
			l0.6-1.8l0.6-1.2l0.7-0.6l0.7-1l0.6-1.7l1.4-1.7l5.7-4.1l3.3-3.5l0.3-1.1l1.8-1.7l1.4-1.8l6.8-5.3l1.4-2.2l0.8-2.4l0.1-0.2
			l0.6-0.1l0.8,0.4l0.1,1.8l-0.3,1.7l0,1.8l-0.1,1l0.6,0.8l1.1,0.4l0.5,0L512.5,355L512.5,355z M512.3,362.4l0.1-0.8l-0.2-0.4
			l-0.7-0.1l-0.3,0.7l-0.1,1l0.5,0.1L512.3,362.4L512.3,362.4z M482.9,376.5l-0.1,0.3l-0.5,0l-1.1-0.3l-0.4-0.5l0.7-0.6l0.3,0
			l0.5,0.6L482.9,376.5L482.9,376.5z M464.6,379.7l-1.2,0.1l-1.1-0.7l2.3-0.9l0.6-0.4l0.7-0.8l0.5,0.7l-0.6,1.1l-0.4,0.5
			L464.6,379.7L464.6,379.7z M453,379.2l-0.3,0.1l-0.3-1l0-0.3l0.7-0.4l0.5,0.8L453,379.2L453,379.2z M474.2,381.1v0.6l-1.6-0.2
			l-0.4,0.3l-1.3-0.2l-1.3-0.4l0.9-0.7l2.3-0.8l1,0.8L474.2,381.1L474.2,381.1z"/>
		<path class="st2" d="M354,101.8l-2.8-0.1l-2.4,0.9l-0.9-0.2l-0.6-1.6l-0.5-1.3l-1.5-3.3l0.4-1.4l-0.8-0.8l-2-1.4l-0.5-0.6l0.3-0.8
			l0.2-1.5l-0.2-1.2l-0.6-0.4l-1,0l-1.2,0.3l-2.5,1.2l-1.7-0.7l-1-0.7l-0.6-0.6l-1.3,0.5l-0.3-0.3l-0.1-1.5l-0.4-0.8l-0.8-1
			l-0.7-0.5l-2.7,1l-1.6,0.3l-0.6-0.9l-2.8-3l-2.6-2.3l-1.8-0.9l-1.8,0.1l-2.8,0.5l-1-0.2l-2.4-1l-2-1.2l0.3-0.5l0.4-0.4l-0.5-1.5
			l-1.1-2.5l0.1-0.8l-0.4-1.1l-0.4-0.8l1.6-1.9l0.7-1.6l0.2-1.5l-0.4-1.6l-1.1-2.9l-0.6-0.8l-1.2-0.8l-1-1.3l-0.3-0.9l0.8-0.2l2.5,0
			l2.4-0.3l1.9-0.6l2.7-0.5l1.1-0.4l1.3-0.2l4,0.5l1.5-0.4l4.5-0.1l0.1-0.2l-0.6-0.6v-0.2l2.7-0.4l0.4-0.3l0.3,1l1,1.1l1.1,0.4
			l0.6,0.6l0,0.4l-1.9,0.5l-0.1,0.3l0.1,0.3l0.6,0.1l2.7,1.3l1.5,0l0.8,0.4l0.4,0.8l1.3,1.1l1,1.1l0.1,0.4l-0.2,0.5l-2.9,2.1
			l-0.4,0.7l0,0.8l1.3,2.2l1.9,2.4l2.7,1.9l3.7,2l0,1.2l-0.6,1.5l-0.5,1l-0.2,0.7l-0.5,0.3l-3.7-0.1l-0.6,0.2l-0.2,0.3l0,0.2
			l1.3,0.4l2.1,1.6l1.2,1.5l1.2,0.7l1.4,1.2l1.1,1.1l1.7,1.5l1.9-0.5l2.6,1.3l0.1,0.9l-0.2,0.8l-1.6,0.9l-0.2,0.4v0.3l0.2,0.4l1,0.7
			l1.1,1l1.3,1.6l-0.6,0.5l-1.2,0.1l-0.9-0.2l-0.3,0.3l0,0.5l1.2,1.2l0.2,0.9l-0.1,1.5L354,101.8L354,101.8z M330.3,57.2l0.1-0.6
			l-0.1-0.5l-0.4-0.2l-0.5,0.1l0,0.6l0.2,0.5l0.5,0.2L330.3,57.2L330.3,57.2z M338.8,66l-0.6,0.4l-0.6-0.2v-0.9l0.4-0.4l0.5,0
			l0.5,0.3L338.8,66L338.8,66z"/>
		<path class="st2" d="M387.7,39.7l1.5,1.2l2.6,3.4l3.7,5.5l0.9,1.6l0.6,1.8l0.5,2.2l0.8,1.9l3.7,4.8l1.6,1.8l2.6,2.3l0.9,0.5
			l1.2,0.1h2.2l2.1,0.9l1,0.6l1.1,0.9l1,1.1l1,2.8l-3.6-0.9l-3.6,0.1l-2,0.6l-2,0.8l-1.9,1.2l-1.2,2.2l-1,5.2l-1.5,4.8l0.1,2.2
			l0.6,2.1l-0.1,1l-0.7,0.4l-0.8,0.9l-1.1,4.4l-0.6,0.9l-0.7,0.5l-0.2-0.5l0-1.2l-1.6-1l-0.8,1.1l-0.6,2.4l-1.2,2.5l-0.1,0.5
			l0.3,7.8l-0.5,0l-3.3,0.8L388,112l-2.8-3.6l-0.6-0.4l-1.2-0.2l-0.7-0.6l-0.6-1l-0.3-0.7l-2.9-2l-0.4-0.7l-0.1-0.6l0.4-0.6l0.5-0.5
			l1.4-0.5l1.7-0.4l0.5-0.3l0.3-0.5l0-0.8l-0.3-0.8l-2.4-1.5l-0.3-0.6l-0.1-0.8l0.1-0.8l0.4-0.6l2-0.9l1.1-0.9l-0.6-1l-2.1-2.3
			l-2.5-2.6l-1.7,0l-1.9,0.8l-3.1,2.2l-1.7,0.9l-2.2,1.6l-2.4,1.7l-2,1.8l-1.2,1.5l-2.2,0.7l-1.1,1.3l-3.7,3.8l-1,0l-0.1-1.9
			l0.1-1.5l-0.2-0.9l-1.2-1.2l0-0.5l0.3-0.3l0.9,0.2l1.2-0.1l0.6-0.5l-1.3-1.6l-1.1-1l-1-0.7l-0.2-0.4v-0.3l0.2-0.4l1.6-0.9l0.2-0.8
			l-0.1-0.9l-2.6-1.3l-1.9,0.5l-1.7-1.5l-1.1-1.1l-1.4-1.2l-1.2-0.7l-1.2-1.5l-2.1-1.6l-1.3-0.4l0-0.2l0.2-0.3l0.6-0.2l3.7,0.1
			l0.4-0.3l0.2-0.7l0.5-1l0.6-1.5l0-1.2l-3.7-2l-2.7-1.9l-1.9-2.4l-1.3-2.2l0-0.8l0.4-0.7l2.9-2.1l0.2-0.5l-0.1-0.4l-1-1.1l-1.3-1.1
			l-0.4-0.8l-0.8-0.4l-1.5,0l-2.7-1.3l-0.6-0.1L331,56l0.1-0.3l1.9-0.5l0-0.4l-0.6-0.6l-1.1-0.4l-1-1.1l-0.3-1l3.5-2.8l1-0.6
			l2.3,0.5l4.7,1.9l-0.3,1l0.5,0.6l1.1,0.8l2.1,0.8l1.8,0.4l0.9-0.4l1.4-0.3l1.8,0.9l1.6,1.2l0.8,0.5l0.4,0.1l1.2-0.4l1.5-1.5
			l0.6-1.8l0.2-0.9l-0.9-1.2l-1.8-1.3l-2-1.2l-1.3-1l-0.8-2l-0.8-0.2l-0.2-0.3l-0.1-0.7l0-1l0.3-0.7l0.8-0.3l0.8-0.1l0.7-0.7
			l0.9-1.4l0.4-0.8l1.7,0.4l0.2,1.3l0.3,0.3l0.7-0.2l1.2-0.5l1,0.4l1.2,1.5l1.7,1.6l0.9,1.1l0.4,0.7l0.9,0.7l1.3,0.8l1,1.3l0.9,3
			l0.9,0.7l3.3,1.1l1.2,0.2l3.2,0.4l1.1-0.3l1.7-2.6l1.5-2.7l1.4-0.6l2.5-1.3l1.5-1.2l0.6-1.3l1.4-2.5L387.7,39.7L387.7,39.7z
			 M338.8,66l0.2-0.7l-0.5-0.3l-0.5,0l-0.4,0.4v0.9l0.6,0.2L338.8,66z M330.3,57.2l-0.3,0.2l-0.5-0.2l-0.2-0.5l0-0.6l0.5-0.1
			l0.4,0.2l0.1,0.5L330.3,57.2L330.3,57.2z M347.9,102.4l-3.1-0.6l-5.6-1.3l-1.5-0.7l-1.5-1.9l-0.9-0.9l-1.3-1.2l-1.1-0.4l-0.8-0.8
			l-0.5-1.2l-0.7-1.1l-1.2-1.3l-2.6-4.3l-0.3-0.4l-0.5-0.7l-0.2-0.4l1.6-0.3l2.7-1l0.7,0.5l0.8,1l0.4,0.8l0.1,1.5l0.3,0.3l1.3-0.5
			l0.6,0.6l1,0.7l1.7,0.7l2.5-1.2l1.2-0.3l1,0l0.6,0.4l0.2,1.2l-0.2,1.5l-0.3,0.8l0.5,0.6l2,1.4l0.8,0.8l-0.4,1.4l1.5,3.3l0.5,1.3
			L347.9,102.4z"/>
		<path class="st1" d="M155.3,251.2l0.2,0.6l0.5,1.6l1.3,4l1.2,3.1l1.4,4.3l0.4,1.7l0.2,1.1l2.1,4.7l1.2,3.9l0.9,3.2l1.3,4.6
			l0.6,1.6l-0.9,0.8l-1.8,3l-1.9,9.4l-2.8,7.3l-0.3,4.6l-0.4,1.6l-1.3,2.3l-1.6,2.3l-2.8-1.2l-4.6-4l-2.7-3.8l-2.9-2.5l-2.7-3.3
			l-0.7-2.3l0-1.5l-1.2-3.7l-0.9-1.7l-3.3-3.9l-1-2.1l-0.7-0.9l-0.7-1.3l-1.2-5.1l-1.3-3.3l-1.5,0.9l0.3,1.4l-1.3,1.9l-0.8,2.2
			l0.6,1.8l2.7,2.7l0.5,1.2l0.6,2.6l-0.1,3.5l0.4,1.2l2,2.6l0.7,1.5l0.4,1.3l0.7,1.2l2,2.2l2.9,4.3l2.8,2.9l2,1.4l0.8,1.4l0.2,3.6
			l-0.2,1.7l1.7,3.2l0.6,1.6l1.7,1.3l0.8,1.5l0.7,2.4l1.1,7.2l1.5,1.8l4.5,9.4l3.8,6l1.8,4.4l2.8,5.4l5.5,11.8l3.3,3.6l1.3,2
			l2.4,1.6l2.6,2.3l-2.4-0.2l-0.6,0.1l-0.9,0.4l-0.4,1.4l-0.2,1.1l0.3,5.9l0.7,3l2.2,5.7l1.6,1.7l0.8,1.1l1.1,0.8l5.1,1.9l3,4.1
			l6.7,5.2l0.7,1.4l0,0.3h-5.3h-5.3h-21.2h-5.3h-31.8h-5.3h-13.6l0.5-1.5l0.3-1.1l-0.4-0.8l-1-0.2l-0.7,0.2l-1.6,3.2l-0.8,0.1H80.4
			h-6.2H49.5h-6.2H12.5H6.3V291l-0.1-0.8l-0.9-2.8l-0.8-3.6l-0.9-4.4L3.5,278L2,273.5l-0.1-1.3l0.4-0.9l2.4-3.9l0.7-1.9l0.6-2.2
			l0.2-1.8l-0.7-2.8l-0.8-2.5l-0.3-2.6l-0.1-2.6l1.2-1.7l1.5-1.6l0.6-1l0.9-1.1l0.6-0.5l1.2,2.3l2.5,0.4l8.3-2l9.1,2.1l5,0.8
			l7.8,1.7l4.7,3.1l1.3,0.4l3.4-0.1l2.2,1.8l8.8,0.9l4.7,2l2.7,1.6l1.6,0.5l1.4-0.1l1.9-0.6l2.4-1.1l2.6-1.6l5.5-4.1l1.9-0.7
			l1.3,0.2l1.5-0.1l0.6-1.1l0.8-0.8l0.5-0.9l0.8-1l2.8-0.3l5.7-1.8l-0.6,0.8l-5.2,2l2.2,0.3l2.3-0.7l2.6-0.4l0.5-0.8l0.3-1.6
			l0.5-0.2l1.8,0.3l5.3,2.4l1.3,0l3.8-1.3l0.8-0.3l1.2,0.7l2.8,3l-1-0.1l-3-2.6l-0.3,1.3l-1.7,2.3l2.1,1l1.7,0.4l0.9,1.3l0.6,1.1
			l1.7-0.5l1.2-1.5l-0.6-0.9l-0.4-0.9l0.6,0l1.2,0.7l3.4,2.9l1.1,0.6l1.3-0.1l2.8-0.8l0.8,0.1l3.7-1.1l0.4,0.8l0.6,0.8l3-0.9h4.7
			l3.8-0.9l4.4-2.3L155.3,251.2L155.3,251.2z"/>
		<path class="st2" d="M353,38.7l-0.4,0.8l-0.9,1.4l-0.7,0.7l-0.8,0.1l-0.8,0.3l-0.3,0.7l0,1l0.1,0.7l0.2,0.3l0.8,0.2l0.8,2l1.3,1
			l2,1.2l1.8,1.3l0.9,1.2l-0.2,0.9l-0.6,1.8l-1.5,1.5l-1.2,0.4l-0.4-0.1l-0.8-0.5l-1.6-1.2l-1.8-0.9l-1.4,0.3l-0.9,0.4l-1.8-0.4
			l-2.1-0.8l-1.1-0.8l-0.5-0.6l0.3-1l-4.7-1.9l-2.3-0.5l-1,0.6l-3.5,2.8l-0.4,0.3l-2.7,0.4v0.2l0.6,0.6l-0.1,0.2l-4.5,0.1l-1.5,0.4
			l-4-0.5l-1.3,0.2l-1.1,0.4l-2.7,0.5l-1.9,0.6l-2.4,0.3l-2.5,0l-0.8,0.2l0-0.4l-0.1-0.6l-0.5-0.5l-0.7-0.3l-1.3,0.1l-1.2-0.3
			l-0.8-0.8l-0.2-0.6l0.5-0.5l-0.4-0.4l-1.5-1l-2.4-2.4l-1.4-0.5l-0.5-1.5l-0.5-0.3l-1.2-0.1l-1.2,0.2l-0.3,0.2l-0.4,0.3l-1,1.9
			l-0.7,0.6l-1.6-0.3l-1.4-0.4l-1.1-0.3l-2.2-0.2l-2.5,0l-1.7,1.4l-0.7-0.2l-1.3-0.7l-2-0.6l-1.1-0.4l3.1-4l0.9-2.4l0-1.5l0-1.8
			l-1.6-3.8l-1.4-5.5l-1.4-5.7l-1.1-1.7l-4.7-2l-1.1-2.3l-3.6-2.9l-5.1-1.3l-1-0.5l-4.4-3.7l-3.4-2.4l0.7-1.4l1-1.5l1.1-0.4l3.1,0.6
			l2.9,0.7l2.1-0.5l2.5,1.2l2.3,1.4l2.3,1l4.5,0.9l1.7,1.3l1.9,1.3l7.6,0.6l0.6-0.2l0.6-0.2l2.5-0.5l2.2,0.1l2.4,1.5l1.5-0.1
			l1.6-0.2l2.1,0.8l1.6,0.9l0.1,0.9l1.4,1.3l4.2,2l3.4,1.2l1.1,0.8l2.6,1.3l0.3,0.4l-0.1,0.5l-0.7,1l-0.2,0.9l0.3,0.5l1.1,0.5
			l2.1,0.1l0.8-0.6l1.6-0.5l1.6-0.8l2.1-1.1l2.9-1h1.1l1.1,0.3l0.8,0.5l1.3,2l1.3-2.8l0.3-0.2l1.2,0.6l2.1,0.8l1.4,0.4l0.8,0.6
			l2.2,2.6l3.5-0.1l1.5,0.4l0.8,0.4l0.4,0.5l-0.6,2.6l-0.9,2.7l0.1,0.6l1.4,1l1.9,1.1l1,0.9l0.7,0.8l1.5,0.6l1.8,0.4l0.9,0l0.9,0.6
			l2.3,1.2L353,38.7L353,38.7z"/>
		<path class="st1" d="M326.1,137.8v0.2l0.5,1.4l1.3,5.3l0.8,0.7l0.9,0.6l0.6,0.8l0.2,0.8l-0.1,1.2l0,1.4l0.4,1.1l0.5,0.8l0.5,0.4
			l0.7,0l0.8,0.2l0.6,0.8l1.8,6l0.2,0.8l0.7,0.3l1.2-0.1l1.3,0.6l1.3,1l1.3,1.8l0.9,0.3l2.7-0.3l3.7,0.3l1.7,0.9l-0.2,0.6l-1.3,0.6
			l-2.3,0.8l-0.7,1.3l-0.4,1.7l0.1,0.9l0.6,1l1.6,2l0.1,0.7l0.3,1l0.3,0.7l-0.3,1.4l-1.5,0.9l-2,1l-3.9,4.5l-0.3,1l0,2.7l-0.4,0.8
			H339l-1-0.2l-0.1,0.9l-0.6,1.2L337,192l1.4,2.5l0.3,1.3l-0.2,1.2l-1.3,2.1l-0.8,1.4l0.2,0.3l1,0.6l3.2,4.6l1,1.6l1.4-0.4l0.5,0
			l0.4,0.3l0.3,0.5v0.7l-0.3,1l1.7,0.4l0.6,1.1l2,3.6l-0.1,1.1l-1,1.7v1.1l0.2,1l0.3,0.4l3,0.1l1.3,0.4l3.1,1.8l3.6,2.8l2.9,2.3
			l2.5,1.9l2.7-0.1l0.7,0.4l0.7,0.6l0.8,1.6l1.5,3.6l1.3,1.2l2,2.9l1.9,2.7l-1.2,3.7l-1.2,3.8v7.5l2.5,0.1l2.8,0.1l0,3.1l0,3.1
			l0,3.6l0.8,0.2l1.3,0.8l0.6,1.2l0.7,0.6l0.9,0.1l0.8,0.6l0.8,1l0.3,0.8l-0.2,0.5l0.2,0.9l0.6,1.3l0.7,0.6l1.1,0.8l-1.5,0.4
			l-1.6-0.3l-3.4-1.6l-1.1,0l-1.5,0.6l-0.1,0.5l-3.6-1.7l-1.3-0.4l-0.5,0l-2.1,0l-3,0.3l-1.7,0.7l-1.2,0.7l-0.6,0.7l-0.2,0.4
			l-0.9,2.2l-1.1,2.8l-1.1,2.5l-2.2,3.5l-1.2,1.6l-2.6,3l-2.8,0.6l-6.6-0.6L338,292l-7.2-0.6l-5.4-0.5l-0.4-0.2l-5.3-4.3l-4.2-3.4
			l-5.3-4.3l-5.4-4.4l-5.5-4.4l-4-3.2l-4.8-4.2l-4.4-3.8l-3.5-3l-4.4-2.6l-3.5-2.1l-5.1-3l-4-2.4l-3.5-2.1l-5.3-3.2l-1.8-0.9
			l-5.5-1.1l-5.2-0.9l-5.4-0.9l-3.6-0.6l2.4-2.3l-0.7-2l-1.7,0.4l-1.6,0.5l-1-3.2l1.2-0.4l-1.1-4.2l-1.2-4.3l-1.1-4.2l-1.2-4.3
			l4.6-2.7l3.4-2l4.8-2.9l4.6-2.8l4.4-2.6l4.8-2.9l4.3-2.6l4-1.1l0.8-0.8l1.8-3.6l1.5-3.1l0.1-0.7V180l0.3-5.1l0.5-2.8l0.9-2.4
			l0.8-1.8l0.1-1.7l-0.1-1.7l-0.8-2.6l-0.9-2.7l0.1-2.6l0.2-1.4l0.6-2.2l0.9-1.6l1-1l3.8-1l2.2-0.6l3-2.9l1.8-1.7l2.5-2.7l1.8-2
			l0.1-0.7v-0.3l1.6-0.4l2.9-2.4l1.7-2.3l0.5-0.2l1.5,0.7l1.1,0.2l2.5-0.9l1.5,0.5l1.3,0.6l0.7,0l3.4,1.4l0.8,0.2l1.7,0.2l2.6,0.1
			l1.7-0.9l1.2-0.9l0.8,0l0.8,0.2l0.7,0.4l0.6,0.7l0.3,1l-0.1,3l0.3,0.8l0.5,0.6l0.6,0.1l0.7-0.7l1.2-1l1.5-1.1l1.1-1l0.6-0.4l1,0.1
			l1,0.2L326.1,137.8L326.1,137.8z"/>
		<path class="st2" d="M327,86.3l0.3,0.4l2.6,4.3l1.2,1.3l0.7,1.1l0.5,1.2l0.8,0.8l1.1,0.4l1.3,1.2l0.9,0.9l1.5,1.9l1.5,0.7l5.6,1.3
			l3.1,0.6l0.9,0.2l2.4-0.9l2.8,0.1l1,0l3.7-3.8l1.1-1.3l2.2-0.7l1.2-1.5l2-1.8l2.4-1.7l2.2-1.6l1.7-0.9l3.1-2.2l1.9-0.8l1.7,0
			l2.5,2.6l2.1,2.3l0.6,1l-1.1,0.9l-2,0.9l-0.4,0.6l-0.1,0.8l0.1,0.8l0.3,0.6l2.4,1.5l0.3,0.8l0,0.8l-0.3,0.5l-0.5,0.3l-1.7,0.4
			l-1.4,0.5l-0.5,0.5l-0.4,0.6l0.1,0.6l0.4,0.7l2.9,2l0.3,0.7l0.6,1l0.7,0.6l1.2,0.2l0.6,0.4l2.8,3.6l0.7,0.3l3.3-0.8l0.5,0l0,0.9
			l0.5,5.1l0.4,2.6l0.6,2.6l0.9,2.3l1.1,2.2l1.5,1.4l3.2,1.6l1.6,0.5l4.2,0.3l4.1,0.7l2.4,0.8l0.7,0.5l0.6,0.8l2,3.8l3.2,2.7
			l6.4,4.1l3.1,1.4l10.4,2.6l6.9-0.1l19.1-5l6.4-1.2h2.4l-1.4,1l-2.4,0.6l1.4,0.7l2.2,0.1l1-0.1l0.7-0.6l0.1-1l-0.1-1l-1.1-4.6
			l-0.6-3.3l4.5,0.2l1.7-0.4l2.6-1.1l2-0.7l1-0.1l1-0.5l0.7-0.6l1.7-4.5l0.8-1.1l2.8-2.5l2.4-1.6l2.5-1.4l3.2-1l4.2,0.1l3.4,0.3l2,0
			l0.9,0.1l0.7-0.1l0.4-0.3l0.4-2l0.7-0.6l1.2-0.6h1.7l2-0.1l1.7,0.1l2.1,0.8l2.8,0.1l1.9-0.1l1.1,0.8l0.8,1l0.4,0.8l0.1,1.2l0,0.9
			l0.3,0.3l1.1,0.5l1.6,0.4l3.1,0.5l2.9,0.9l1.5,0.6l2.1,1l2.5,2.4l0.9,0.4l1.1,0.2l0.8-0.1l1.9-1l1.6,0.7l0.8-0.1l1.9-0.6l2,0.7
			l4.9,2.6l0.5-0.1l0.4,0.3l0.4,0.6l0.3,0.7l0.4,2.2l1.4,1.6l1.7,1.5l2,0.8l4.2,2l1.8,1.6l1.9,2.7l2.3,3.5l0.3,0.3l5.9-0.1h6.7
			l0.8,1.4l-0.2,2.8l0.2,2.9l0.6,2v1.8l-0.5,0.9l-0.4,1.1l-0.1,0.5l0.9,0.7l0.7,1.5l0.1,2.1l-0.4,1.1l0.1,0.9l0.4,0.8l0.3,1.3
			l-0.1,0.8l-0.5,0.8l-0.3,1l-0.4,1.2l-0.2,1l-0.8,0.5l-0.6,0.3l0.1,1.2l0.3,1l0.4,1.2l-0.4,0.8l-0.3,1l-0.6,1.6l0.2,1.3l-0.6,1.1
			l-0.8,1l-0.5,0.8l-0.1,1.1l-0.6,0.4l-1.1,0.9l-0.7,0.6l-1,0.2l-0.2,0.5l0.2,0.5l0.4,0.3l0.7,1.1l1.4,1.9l-4,0.2l-1.2,1.7l-1.4,2.4
			l0.7,4.9l-0.7,2.5l0.4,1.4l1,1l1.3,0.5l2.5,0l1.6,0.4l0.2,0.6l-0.9,1l-1.5,1.8l-0.8,0.8l-2.5,3.6l0,1.5l0.2,1.2l1.1,3.8l1.1,3.7
			l1.9,6.7l0,1.5l-0.6,3.4l0,2.1l0.3,2.7l-0.2,1.4l0.5,3.1l0.5,0.2l4.2,0.6l3.8,0.6l5.1,0.7l1.5,1.8l1,4l-0.1,3l-0.4,1.5l-3.6,4.4
			l-3.7,4.4l-3.7,4.4l-3.8,4.5l-0.4,0.5l3.1,3.6l1.9,2.2l2.7,3.1l0.3,0.8l0,1.2l2.8,4.8l1,2.5l0.9,1.5l2.2,2.3l2.1,2.2l2.3,1
			l1.6,0.2l3.6,1.2l1.3,0.9l2.1,2.3l2.5-0.3h0.5l0.1,0.2l0.1,0.8l-0.4,3.6l0.7,3.7l0.5,5.5l-0.2,1l-0.6,1.6l0,1l-0.2,0.6l0.2,0.3
			l0.8,0.4l1.7,0.2l4.1-0.6l0.5,0.2l1,0.6l0.7,1l0.1,0.5l-1,0.8l-0.2,1.4l0.3,2.1l-0.1,0.3l-0.9,0.5l-0.3,3.1l-0.2,0.3l-1.1,0.3
			l-5-0.2l-0.6,0.1l-1.9,0.8l-3.2,0.6L611,339l-1.2,0.9l-0.8,1.1l-0.2,1.1l-0.2,0.2l-1.8-0.2l-0.6,0.9l-3.5,1.4l-0.4,0.3l-0.5,1.1
			l-0.5,3l-0.4,2.7l-0.3,0.4l-1.1,0.9l-0.1,0.3l0.2,1.1l-0.5,1.9l-0.4,5.3l-0.4,1.5l-0.9,0.1l-0.7,0.7l-1.3,0.9l-2.7-0.7l-2.2-0.7
			l-7.2-1.7l-0.8-0.8l-0.5-1.5l-1.2-0.4l-1.8,2.2l-6.1-1.3l-2.1,0.4l-1.3-0.7l-3.3,0l-2.6-1.4l-3.7,1l-2.9,0.2l-4-2.4l-4.3-0.7
			l-3.5,0.2l-1.8-0.2l-2.9-0.9l-1.4-0.9l-2.3,0.7l-1-1.3l-6.4-1.2l-1.2-2.3l-0.9-2.1l-0.1-2.2l-1.6-3.8l-0.5-5.5l-0.6-2.2l-0.9-1.9
			l-1.2-1.6l-1.6-1.7l-1.4-0.7l-6-1.3l-1.2,0.2l-2.7,0.9l-2.9,1.9l-4.7,1.1l-0.9,0.8l-1.2,1.8l-1.5,1.1l-2.1-0.3l-2.3,1.1l-4.2,3
			l-2.2,0.9l-1.9-0.1l-2-1.4l-4.4-1.9l-2.9-0.6l-4,0.4l-1.9-0.3l-3.2-2.3l-0.8-1.7l-1.8-1.1l-5.8-2.5l-4.7-3.3l-0.9-1.2l-0.6-1.8
			l-2-2.2l-4.6-1.8l-2.6-2l-3.1-0.4l-2.8,0.1l-1.2-0.4l-1.1-0.8l-3.9-4l0-1.6l-2.4-3.9l-0.6-1.4l-0.5-3.9l-0.7-1l-2.5-1.6l-0.4-1.1
			l0.5-1.4v-1.1l-1.3-1l-2-0.5l-0.5-1.2l0.4-2.4l-0.3-1.5l-1.7-2.4l-2.5-2.4l-2.5-3.6l-1-0.9l-0.6-2.4l-0.9-2.8l-1.4-0.2l-6.9,3.4
			l-2-1.9l-6.1-3.3l-0.4-0.5l-0.4-0.8l0.8-0.4l0.8-0.2l1.5,0.6l0.9-0.7l-0.4-1.1l-1.5-0.7l-2.1,0.1l0.6,1.1l-1.9,1l-0.4,1.3l0.3,1.6
			l0.2,2.2l-0.8,1.1l-0.6,0.5l-2.6,0.1l-1.2,1l-0.8,0.2l-1.1-0.8l-0.7-0.6l-0.6-1.3l-0.2-0.9l0.2-0.5l-0.3-0.8l-0.8-1l-0.8-0.6
			l-0.9-0.1l-0.7-0.6l-0.6-1.2l-1.3-0.8l-0.8-0.2l0-3.6l0-3.1l0-3.1l-2.8-0.1l-2.5-0.1v-7.5l1.2-3.8l1.2-3.6l-1.9-2.7l-2-2.9
			l-1.3-1.2l-1.5-3.6l-0.8-1.6l-0.7-0.6l-0.7-0.4l-2.6,0.1l-2.5-1.9l-2.9-2.3l-3.5-2.8l-3.1-1.8l-1.3-0.4l-3-0.1l-0.3-0.4l-0.2-1
			v-1.1l1-1.7l0.1-1.1l-2-3.6l-0.6-1.1l-1.7-0.4l0.3-1V208l-0.3-0.5l-0.4-0.3l-0.5,0l-1.4,0.4l-1-1.6l-3.2-4.6l-1-0.6l-0.2-0.3
			l0.8-1.4l1.3-2.1l0.2-1.2l-0.3-1.3l-1.4-2.5l0.4-1.1l0.6-1.2l0.1-0.9l1,0.1h1.2l0.4-0.7l0-2.7l0.3-1l3.9-4.5l2-1l1.5-0.9l0.3-1.4
			l-0.3-0.7l-0.3-1l-0.1-0.7l-1.6-2l-0.6-1l-0.1-0.9l0.4-1.7l0.7-1.3l2.3-0.8l1.3-0.6l0.2-0.6l-1.7-0.9l-3.6-0.3l-2.7,0.3l-0.9-0.3
			l-1.3-1.8l-1.3-1l-1.3-0.6l-1.2,0.1l-0.7-0.3l-0.2-0.8l-1.8-6l-0.6-0.8l-0.8-0.2l-0.7,0l-0.5-0.4l-0.5-0.8l-0.4-1.1l0-1.4l0.1-1.2
			l-0.2-0.8l-0.6-0.8l-0.9-0.6l-0.8-0.7l-1.3-5.3l-0.5-1.4v-0.2l0-0.3l-0.1-1.2l0.6-1.1l0-0.4l-1.3-1.3l-1.8-1.3l-0.5-0.2v-1.4
			l0.1-1.1l-0.2-1l-0.3-0.6v-0.4l0.7-1.1l-0.5-0.7l-2.6-1.7l-1-0.9l-1.8-0.2l-0.2-0.6l0.3-1.2l0.6-1.5l1-1.4l0.3-0.8l0.4-1.3
			l0.1-0.9l1.1-1.3v-0.3l-0.3-0.5l-0.9-0.3l-0.9-0.1l-0.3-0.2l-0.1-0.7l0.1-2.8l-0.3-1.7l-0.4-1.2l0.2-2.8l-0.6-0.6l-1-1.5l-0.4-1.2
			l0.2-0.5l0.2-0.8l0.1-1.1l0-0.8l-0.9-0.7l-0.7-0.8l-0.1-0.9l-0.3-1.1l-0.4-0.8l-0.2-0.5l0.3-0.3l1.3-0.3l1.9,0.2h1.5l0.9-0.5
			l1.1-5.1l1-1.3l1.1-0.8l2.2,1.8l0.9,0.6l0.5,0.1L327,86.3z M510.8,332.2l-1.5,2.2l-2.3,1.8l-1-0.6l-0.8,0l-1.6,0.7l-1.2,0.1
			l-2.1,1.2l-1.9,0.6l-1.3,0l-0.5-0.1l-0.3-0.8l0-0.3l0.8,0.2l3-1.1l3.7-1.8l0.4-0.8l-0.6-1.3l0.2-0.3l2.4,0.7l2.7-1.3l2.3-0.4
			l1.1,0.9L510.8,332.2L510.8,332.2z"/>
		<path class="st1" d="M235.3,236l-2.4,2.2l-0.6,0.2l-3.1,0.9l-6.4,1.9l-4.3,1.3l-5.5,1.6l-4.5,1.3l-4.5,1.3l-4.2,1.2l2.4,2.6
			l3.6,3.9l2.4,2.6l2.8,3.4l2.5,3l2.7,3.2l-1.9,1.1l-3.1,1.8l-0.3,0.3l-0.3,0.3l-1.3,3.1l-1,2.5l-0.4,0.3l-4.4,0.9l-4.4,0.9
			l-2.8,0.6l-0.8,0.6l-1.8,3.1l-1.9,3.2l-3.1,2.6l-3.5,2.9l-0.9,0.2l-2.5-0.4l-4.3-0.7l-4.1-0.7l-2.8-0.5l-3.4-0.6l0.5-2.4l-0.1-1.3
			l0.8-4.3l0.5-2l0.2-1.5l1.2-3l-0.1-1l0.3-3.5l-0.1-0.7l0.5-1.9l1-2.8l1-2.4l0.4-1.1l1-2.3l0.9-2.8l-0.5-1.5l-0.1-0.3l0.4-1.8h0
			l0.4-2.9l0.2-1.6l0.5-2.1l1-1.8l-0.4-4.2l0.1-2.2l0.6-2.6l-0.3-3l0.3-4.3l0.1-0.4l0.4-0.5l0.3-0.3l2-0.9l0.9-0.1l1.7,0.4l1,0.9
			l1.7,2.5l2.6,0.7l1,0.7l1.4,1.3l1.7,0.5l5.5,0.8l4.4-2.8l3.7-2.4l4.2-2.7l2.9-1.9l4.9-3.2l3.2-2l4.2-2.6l4.2-2.6l1.2,4.3l1.1,4.2
			l1.2,4.3l1.1,4.2l-1.2,0.4l1,3.2l1.6-0.5l1.7-0.4l0.7,2L235.3,236L235.3,236z"/>
		<path class="st2" d="M182.3,211l-0.5,0.3l-0.9,0.9l-0.9,0.7l-1.7,1.1l-0.4,0.7l-0.4-0.6l-0.8,0.4l-0.6,2.5l-1.3,0.8l-1.7-0.1
			l-1.4-0.2l-1.9,0.2l0.8-1.5l0.8-1.9l0.8-2.6l1.4-2.1l2.8-7.3l1.6-3l0.6-4.2l2.5-3.7l1.9-1.1l0.9-1.1l0-1.6h2.8l1.8-0.1l0.5-0.9
			l1.4,0.4l0.8,0.9l-0.7,0.9l-1,1l0.1,0.3l0.8,0.1l1.3,0.6l0.8,0.7l1.3,4.1l-0.8,1.7l-1.3,1.5l-0.6,0.1l-1.1,0.7l-0.9,1l-0.3,0.6
			l0.1,0.6l1.3,0.8l0,0.3l-0.3,0.2l-1.1-0.2l-1.4-0.1h-0.8l-0.9,0.2l-1.2,0.9l-0.5,0.6l-0.3,0.4l-0.4,1.2l0.5,0.9l0.9,0.5l0.1,0.3
			l-0.2,0.4l-0.9,0.5l-0.7,0.7l-0.2,0.7L182.3,211L182.3,211z"/>
		<path class="st1" d="M512.5,355l-0.3,0.4l-0.5,0l-1.1-0.4l-0.6-0.8l0.1-1l0-1.8l0.3-1.7l-0.1-1.8l-0.8-0.4l-0.6,0.1l1.4-2.6
			l0.5-0.4l0.5,0.2l1.2-0.3l0.7-1.4l0.5-0.8l0.6,0.1l0.3,0.4l-0.2,2.1l0,1.8l-0.7,5.4l-0.7,0.9l-0.4,0.8L512.5,355L512.5,355z
			 M512.3,362.4l-0.7,0.5l-0.5-0.1l0.1-1l0.3-0.7l0.7,0.1l0.2,0.4L512.3,362.4L512.3,362.4z M460.6,510.3l-1-2.2l-1-2.2l-1-2.2
			l-1-2.2l-0.7-1.6l-1.2-0.5l-0.7-1.6l-0.7-1.7l-0.7-1.7l-0.7-1.7l-0.7-1.7l-0.7-1.7l-0.7-1.7l-0.7-1.7l-0.7-1.7l-0.7-1.7l-0.7-1.7
			l-0.7-1.7l-0.7-1.7l-0.7-1.7l-0.7-1.7l-0.7-1.7l-0.7-1.7l2.3-0.8l2.8-1l2.8-1l2.8-1l2.8-1l2.8-1l2.8-1l2.8-1l2.8-1l2.8-1l2.8-1
			l2.8-1l2.8-1l2.8-1l2.8-1l2.8-1l2.8-1l1.7-0.6l0.7-2.3l0.6-1.9l0.6-1.9l0.6-1.9l0.6-1.9l0.6-1.9l0.6-1.9l0.6-1.9l0.6-1.9l0.6-1.9
			l0.6-1.9l0.6-1.9l0.6-1.9l0.6-1.9l0.6-1.9l0.6-1.9l0.6-1.9l0.5-1.8l-1-1.7l-1.4-2.3l-1.4-2.4l-1.3-2.2l-1-1.6l-1.2-2l0.1-2.5
			l0-1.3l0.1-2l1.1-2.7l1.3-3.5l1-2.3l0.8-2l0.7-1.6l0.4-1.7l-0.2-1.2l-0.4-0.4l-0.4-0.6l1.3-0.9l2.4-0.6l1.3,0.1l1.9-0.4l1.5-0.4
			l0.1-0.5l-0.4-0.9l-0.6-1.3l-2.1-0.1l-0.6-0.4l0.7-1.9l0-0.6l-0.3-0.7l-0.3-1.2l0.2-1.5l0.4-1v-0.8l-0.2-1.7l0.1-1.5l0.4-0.8
			l0.8-0.7l0.7-0.4l0.8,0l0.6,0.3l0.3,0.8l-0.2,0.6l-0.4,0.1l-0.2,0.2l0.6,1.1l0.9,1.1l0.7-0.2l0.8-0.8l0.8-0.7l1-0.6l0.7-1.1
			l0.6-0.7l0.6-0.1l1.6,4.7l2.4,4.4l2.2,2.4l2.2,3.2l3.4,3l1.6,1l6.3,2.1l3.5,0.8l4.8,0.7l3.3,1.6l1.1,0.1l1.7-0.5l1.3,0l3.2,2.2
			l0.9,2.1l1.3,1.1l1.2,1.7l0.8,1.8l2.7,2.8l1.9,3.1l1.9,2.3l1.7,1.4l2.6,0.6l2.1,0.6l0.2,1.5l-0.2,2l-0.4,1.5l-1.9,2.9l-0.5,1.8
			l-2.2,2.9l-2.4,4.9l-1.1,1.1l-3.8,2.5l-2.8,3l-3.3,5.3l-2.5,5.2l-1,1.7l-2,0.3l-1.3-0.1l-0.9-0.5l0.4-1.4l0.2-1.6l-1.2,0.2
			l-1.1,0.3l-2.5,3.9l-1.4,1.7l-0.3,2.2l-0.7,2.8l-1,2.6l-0.4,2.2l0,1.2l0.7,3l0.1,3l0.4,1.8l0.3,2.2l-1.2,0.7l-1,0.3l-4,0.2
			l-4.1,0.7l-3.6,1.3l-2.1,1.3l-2.8,2.8l-1.7,7.1l-2.7,3l-1.8,0.6l-4.4,0.3l-6.2,0.8l-2.2,0.7l-3.6,4.3l-0.3,1.4l0.7,1l0.2,1.1
			l-0.3,1l-1.6,2.8l-1.8,2l-4.7,1.2l-1.7-0.7l-1.6-0.4l-3.1,0l-5,0.5l-1.8,1.5l-2.9,1l-2.7,1.6l-5,0.6L460.6,510.3L460.6,510.3z
			 M551.7,449.9l-1,0.3l-0.3-0.1v-2.2l2.4-2.7l1.6-3.2l1.1,2.8l-1.9,1.6l-1,2.7L551.7,449.9L551.7,449.9z"/>
		<path class="st2" d="M157.7,251.7l-1.7,1.6l-0.5-1.6l-0.2-0.6l3.1-3l1.5-1.9l0.8,0.8l0,0.3l-2.8,3.1L157.7,251.7L157.7,251.7z
			 M176.9,238.7l0.4,4.2l-1,1.8l-0.5,2.1l-0.2,1.6l-0.7-0.1l-2.1,1.1l-2.8,1.1l-3.1,0.3l-0.4-0.3l-0.1-0.5l0.9-2.6l0.4-1.2l1.4-1.3
			l1.9-1.2l0.8-0.3l-0.1-0.5l-1.1-0.8l-1.2-0.4l-1.1,0.4l-0.4-0.1l-0.1-0.3l0.4-0.5l0.2-0.9l-0.2-1.5l-0.1-1.8l-0.3-1.4l0.7-2.3
			l0.2-1.1l0.9-2.3l2.1-1.4l1.8,0.4l0.9,0.1l0.4,0.3l0.3,0.8l1.3,0.9l1.1,0.1l0.3,3l-0.6,2.6L176.9,238.7L176.9,238.7z"/>
		<path class="st1" d="M431.2,373.6l-1.5,0.4l-1.4,0.4h-1.1l-0.9-0.2l-0.6-0.4l-1.2-1.5l-0.8-1.9l0.5-1.1l0.2-0.7l-1.1-5.1l-0.4-3.9
			l0.1-0.8l0.6-0.9l1.1-2.1l0.6-2l1.6-4.6l1.7-1.8l2.5-1.3l2,2.5l2.5,1.9l0.5,2.2l-0.7,1.8l-0.7,2.8l0.4,1.3l0.2,1.1l0.7,1.9
			l0.7,2.4l0.1,1.7l-0.4,1.6l-0.9,1.3l-1.7,3.9l-0.5,0.4L431.2,373.6L431.2,373.6z"/>
		<path class="st2" d="M354.7,292.6l3.1,0.4l4.2,0.5l2.5,0.4l4.8,0.7l1.4,2.8l0.5,2l0.5,1.9l1.4,1.7l3.2,0l2.9,0l3.5-0.1l2.8,0
			l0.9,1.7l0.4,1.7l1.7,4.1l2.4,3.2l0.6,1.2l0.4,1.7l-0.4,0.6l-0.2,0.7l1.8,1.7l2.9,1.5l1.1,0.4l1.3,0.6l-1,1l1.7,2.3l2,2.3l2.1,0.5
			l2.9,3.5l4.4,2.3l2.6,3l-0.3,0.1l-0.8-0.3l-1-0.4l-0.3,0.4l0.1,1.3l0.3,1.5l1.3,1.3l1.2,0.9l0.5,1.7l-0.9,3.7h-0.3l-0.6-0.3
			l-0.7-0.1l-0.4,0.2l0.8,2.7l0.8,2l1,1.6l0.8,2.4l0.7,1l2.8,2.5l0.9,2.1l0.8,3.9l1.8,2.2l1,1.7l1.3,1.4l0.8,1.9l1.2,1.5l0.6,0.4
			l0.9,0.2h1.1l1.4-0.4l1.5-0.4l1.1,0.8l1.2-0.1l0.1,0.7l-0.8,1l-1,2.4l1.4,0.4l1.3,0.2l0.9,0.4h0.5v0.5l0.1,2.3l0.3,0.9l0.6,0.8
			l0.9,1.2l0.9,1.1l0.9,1.2l0.9,1.2l0.9,1.2l0.9,1.2l0.9,1.1l0.9,1.1l0.9,1.1l0.9,1.1l0.9,1.1l0.9,1.1l0.9,1.1l0.9,1.1l0.9,1.1
			l0.9,1.1l0.7,0.9l1.4,0.2l0.4,0.1l1.2,0.2l1.9,0.3l2.5,0.3l2.9,0.4l3.3,0.4l3.5,0.5l3.6,0.5l3.6,0.5l3.5,0.5l3.3,0.4l2.9,0.4
			l2.5,0.3l1.9,0.3l1.2,0.2l0.4,0.1l1.3,0.2l0.2,0l1.1-1.4l1.2,2l1,1.6l1.3,2.2l1.4,2.4l1.4,2.3l1,1.7l-0.5,1.8l-0.6,1.9l-0.6,1.9
			l-0.6,1.9l-0.6,1.9l-0.6,1.9l-0.6,1.9l-0.6,1.9l-0.6,1.9l-0.6,1.9l-0.6,1.9l-0.6,1.9l-0.6,1.9l-0.6,1.9l-0.6,1.9l-0.6,1.9
			l-0.6,1.9l-0.7,2.3l-1.7,0.6l-2.8,1l-2.8,1l-2.8,1l-2.8,1l-2.8,1l-2.8,1l-2.8,1l-2.8,1l-2.8,1l-2.8,1l-2.8,1l-2.8,1l-2.8,1l-2.8,1
			l-2.8,1l-2.8,1l-2.3,0.8l-3.8,0.5l-3.7,0.5l-4.1,0.6l-5,0.7l-3.9,0.6l-5.7,0.8l-5.1,0.7l-4.8,0.7l-4.8,0.7l-4.1,0.6l-2.4,0.7
			l-2.9,1.5l-4.4,2.2l-4.5,2.3l-2.3,1.2l-2.4,3l-1.2,1.5l-2.2,2.8l-1.7,2.1l-2,2.5l-0.9,2.2l-1.4,3.4l-1.2,0.9l-1.9,1.1l-1.7,0.8
			l-2.7-0.1l-1.5-2.1l-1.6-2.2l-0.8-0.9l-0.7,0l-2.7,0.3l-3.3,0.3l-3.9-0.4l-4.5-0.4l-4.2-0.4l-2.1-0.3l-2.8-1.4l-0.7-0.3l-0.7-0.1
			l-3.3,0l-3.2,0l-3.2,0.5l-3.1-0.2l-3.2,0.3l-1.1,0.6l-1.3,0l-0.8,0.5l-0.7,0.2l-0.8-0.4l-1,0.1l-1.5-0.4l-1-1l-0.9-0.8l-0.9-0.5
			l-1.1-0.3h-0.9l-1.2,0.5l-0.7,0.5l-1.8,1.6l-0.1,0.6l0.8,1l-0.3,0.5l-1.1,0.6l-0.3,1.5l-0.2,0.8l-0.2,2l0.5,1.6l0.6,0.6l0,0.7
			l-0.3,1.4l-1,0.4l-0.7,1.3l-0.4,0.6l-0.8,0.7l-3,2.3l-0.2-1.3l-1-2l-0.1-1.4l-0.5-1.4l-0.8-1.1l-1.5-1.1l-0.1-1.5l-1.1-1.5
			l-1.5-1.2l-0.8-2.3l-0.6-3l-3.9-3.9l-4.9-3.6l-1.5-2.1l-2.4-4.2l-1.2-3.3l-3.3-3.8l-0.1-1.5l-0.5-1.8l-0.8-2l-0.5-1.6l-3.3-7
			l-1.1-1.1l-0.9-1.6l-0.2-1.2l-0.3-0.7l-2.3-1.1l-2.2-2.9l-6.5-4.7l-3.2-0.5l-2.5-1.7l-1.9-2.2l-2-3.8l-3.5-4.1l-2.9-5.8l0.9-2.1
			l-0.1-1.5l-0.9-2.5l-1-1.9l-0.7-1.8l0.5-2.6l0.2-2.9l0.6-1.6l0.4-1.7l-0.5-3.5l-1-1.9l0.1-1.2l-1.1-0.6l-0.9-1.3h0.9l-1.7-1.9
			l-0.6-1l-0.6-2.5l-0.8-2l-2.6-4.4l-1.3-2.7l-2.8-3.5l-3.1-2.6l-2-1.2l-0.9-1.1l-1.6,0l-1.7-1.5l-1.2-0.1l-1.5-0.3l-1.8-3l-1.5-2.8
			l-2.5-3.6l0.6-0.9l0.7-1.5l-0.4-2l-0.4-1.4l-1.1-2.5l-3.7-6.2l-1-0.9l-1.6-1.1l-1-2.7l-0.4-2.4l-2.5-1.2l-4.4-8.8L186,335l-1-2.1
			l-2.9-3.4l-1.4-3.4l-2.9-3.1l-2.5-5.5l-3.9-5.5l-1.7-1l-4.1-0.4l-1.7-0.4l-1.6,1.2l-0.1-1.5l1.1-2.1l1.6-4.5l0.3-3.9l2.5-11.6
			l3.4,0.6l2.8,0.5l4.1,0.7l4.3,0.7l2.5,0.4l0.9-0.2l3.5-2.9l3.1-2.6l1.9-3.2l1.8-3.1l0.8-0.6l2.8-0.6l4.4-0.9l4.4-0.9l0.4-0.3
			l1-2.5l1.3-3.1l0.3-0.3l0.3-0.3l3.1-1.8l1.9-1.1l-2.7-3.2l-2.5-3l-2.9-3.4l-2.4-2.6l-3.6-3.9l-2.4-2.6l4.2-1.2l4.5-1.3l4.5-1.3
			l5.5-1.6l4.3-1.3l6.4-1.9l3.1-0.9l0.6-0.2l2.4-2.2l3.6,0.6l5.4,0.9l5.2,0.9l5.5,1.1l1.8,0.9l5.3,3.2l3.5,2.1l4,2.4l5.1,3l3.5,2.1
			l4.4,2.6l3.5,3l4.4,3.8l4.8,4.2l4,3.2l5.5,4.4l5.4,4.4l5.3,4.3l4.2,3.4l5.3,4.3l0.4,0.2l5.4,0.5l7.2,0.7l7.3,0.7l6.6,0.6
			L354.7,292.6L354.7,292.6z M194.1,353.9l-0.2,0.2l-0.7-0.6l0-1.4l0.6-0.8l0,1.1l0.3,1.1L194.1,353.9L194.1,353.9z M199,359.8h-0.4
			l-1.1-1.2l-0.7-0.9l-0.7-0.6l-3.1-1.2l-0.4-0.8l0.5-0.8l0.3,0.8l0.6,0.5l2.6,1.1l2.9,2.4l0.5,0.2L199,359.8L199,359.8z
			 M281.2,509.2l1.2,0.1l-0.5-0.5l-0.1-0.3l0.5-0.8l1.8,1.6l-0.1,1.9l-0.2,0.4l-0.5-0.4l-0.3-0.4l-0.1-0.4l-0.5-0.5l-1.7,0.3
			l-1.1-0.5l-1.5-1.6l-0.4-1.1l0.6-0.2l0.7-0.6l0.4-0.9l-0.4-0.9l0.9,0.2l0.5,1l0.1,2.2l0.1,0.5l-0.3,0.5L281.2,509.2z"/>
		<path class="st2" d="M287.2,138.5v0.3l-0.1,0.7l-1.8,2l-2.5,2.7l-1.8,1.7l-3,2.9l-2.2,0.6l-3.8,1l-1,1l-0.9,1.6l-0.6,2.2l-0.2,1.4
			l-0.1,2.6l0.9,2.7l0.8,2.6l0.1,1.7l-0.1,1.7l-0.8,1.8l-0.9,2.4l-0.5,2.8l-0.3,5.1v4.4l-0.1,0.7l-1.5,3.1l-1.8,3.6l-0.8,0.8l-4,1.1
			l-4.3,2.6l-4.8,2.9l-4.4,2.6l-4.6,2.8l-4.8,2.9l-3.4,2l-4.6,2.7l-4.2,2.6l-4.2,2.6l-3.2,2l-4.9,3.2l-2.9,1.9l-4.2,2.7l-3.7,2.4
			l-4.4,2.8l-5.5-0.8l-1.7-0.5l-1.4-1.3l-1-0.7l-2.6-0.7l-1.7-2.5l-1-0.9l-1.7-0.4l0.2-0.9l0.9-1.5l0.9-1.7l-0.5-0.9l-0.2-0.8
			l-0.1-0.9l0.6-0.9l-0.3-1.1l-0.5-1.1l-0.4-0.6v-1l0.2-0.8l0.3-1.2l0.7-0.6l0.2-0.7l0.7-0.7l0.9-0.5l0.2-0.4l-0.1-0.3l-0.9-0.5
			l-0.5-0.9l0.4-1.2l0.3-0.4l0.5-0.6l1.2-0.9l0.9-0.2h0.8l1.4,0.1l1.1,0.2l0.3-0.2l0-0.3l-1.3-0.8l-0.1-0.6l0.3-0.6l0.9-1l1.1-0.7
			l0.6-0.1l1.3-1.5l0.8-1.7l-1.3-4.1l-0.8-0.7l-1.3-0.6l-0.8-0.1l-0.1-0.3l1-1l0.7-0.9l-0.8-0.9l-1.4-0.4l-0.5,0.9l-1.8,0.1H184
			l-1.2-4.4l-0.2-1.9l0-2.2l0.9-3.2l-0.4-1.5l0-1l-0.2-1.4l-2.2-3l1.2-5.5l0.9-1.3l1.2,0.1l2.6,1.6l0.4,0l0.8-2.1l0.8-0.7l1.6-0.6
			l0.5-3.3l0.7-0.6l0.9-0.3l1.4-0.1l1.2-0.2l0.1-0.6l-1.7-3.9l0.2-1l0.8-3.9l0.5-1.5l0.5-0.5l1.9,0.2l2.7,0.7l0.7,1.1l1.3,1l2-0.1
			l2.3,0.2l1.8,0.1l1.4-0.7l3.2-1.3l1.6-0.4l1.4-0.6l4.6-2.2l1.9,0.2l1.3,0.3l1,0.3l2.2,1.5l1.8,1.5l1.3,0.4l2.3,0l3.3,0.3l4,0
			l2.3-0.4l3-0.7l5.3-1.8l7-3.7l4.1-1.8l1.8-0.2l2.3,0l2.3,0.5l2.6,0.3l1.2,0l2.8-0.4l3.7-0.7l2.3-0.6l2.8-1l1.7-1.7l0.6-0.2
			l0.7,0.3l0.3,0.1l0.7,0.9L287.2,138.5L287.2,138.5z"/>
		<path class="st2" d="M55.4,37l-0.4,2.5l1,2.7l2.4,3.8l2.4,1.9l9.7,4.7l1.8,0.4l-0.4,1.9l-0.6,1.7l-0.6,1.1l-2.8,0.7l-7.8-2.1
			l-2-0.2l-1.4,0.4L53.9,58L51,57.5l-4,0.9l-1.1,2.8l-2.8,3.2l-4.6,2.6l-3.3,1.4l-4.9,5l-2.2,2.9L27.2,77l-1.1,0.4l0.4-1.4l0.6-1.3
			l-0.1-1l0-1.4l1.6-1.6l1.5-1.2l4.4-2.1l1.2-1.8l-3.5,0l-3.5,0.4l-2.2-0.3l-1.9,0.1l-0.6-1.5l-0.5-0.9l0.5-0.3l0.6-0.2l1.1-1.6
			l1-1.2l1.4-1.5l0.4-0.9V57l-0.4-0.6l-0.1-0.7l0-1l0.1-2l3.3-2.2l1.1-0.2l0.4-1l-0.2-2.4l-0.5-1.9l-0.6-0.1l-0.8-0.6l-0.5-0.6
			l-0.8-0.7L28,42.4l0-0.6l0.2-0.6l0.5-0.6l2.4-0.5l0.3-0.4l0.3-1.1l0.5-1.1l0.6-0.4l1,0l2-0.3l1.4-0.4l1.4-0.8l0.7-0.7l2.9-0.4
			l0.8-0.4l0.8,0.3l1.1,1.2l1.8,1.7l1,0.6l0.7-0.3l1.3-0.6H51l1,0.1l0.5-0.5l0.8-0.1L55.4,37L55.4,37z M273.5,46.7l1.1,0.4l2,0.6
			l1.3,0.7l0.7,0.2l1.7-1.4l2.5,0l2.2,0.2l1.1,0.3l1.4,0.4l1.6,0.3l0.7-0.6l1-1.9l0.4-0.2l0.3-0.2l1.2-0.2l1.2,0.1l0.5,0.3l0.5,1.5
			l1.4,0.5l2.4,2.4l1.5,1l0.4,0.4l-0.5,0.5l0.2,0.6l0.8,0.8l1.2,0.3l1.3-0.1l0.7,0.3l0.5,0.4l0.1,0.6l0,0.4l0.3,0.9l1,1.3l1.2,0.8
			l0.6,0.8l1.1,2.9l0.4,1.6l-0.2,1.5l-0.7,1.6l-1.6,1.9l0.4,0.8l0.4,1.1l-0.1,0.8l1.1,2.5l0.5,1.5l-0.4,0.4l-0.3,0.5l2,1.2l2.4,1
			l1,0.2l2.8-0.5l1.8-0.1l1.8,0.9l2.6,2.3l2.8,3l0.6,0.9l0.2,0.4l0.5,0.7h-0.6l-0.9-0.6l-2.2-1.8l-1.1,0.8l-1,1.3l-1.1,5.1l-0.9,0.5
			h-1.5l-1.9-0.2l-1.3,0.3l-0.3,0.3l0.2,0.5l0.4,0.8l0.3,1.1l0.1,0.9l0.7,0.8l0.9,0.7l0,0.8l-0.1,1.1l-0.2,0.8l-0.2,0.5l0.4,1.2
			l1,1.5l0.6,0.6l-0.2,2.8l0.4,1.2l0.3,1.7l-0.1,2.8l0.1,0.7l0.3,0.2l0.9,0.1l0.9,0.3l0.3,0.5v0.3l-1.1,1.3l-0.1,0.9l-0.4,1.3
			l-0.3,0.8l-1,1.4l-0.6,1.5l-0.3,1.2l0.2,0.6l1.8,0.2l1,0.9l2.6,1.7l0.5,0.7l-0.7,1.1v0.4l0.4,0.6l0.2,1l-0.1,1.1v1.4l0.5,0.2
			l1.8,1.3l1.3,1.3l0,0.4l-0.6,1.1l0.1,1.2l0,0.3l-0.6-0.5l-1-0.2l-1-0.1l-0.6,0.4l-1.1,1l-1.5,1.1l-1.2,1l-0.7,0.7l-0.6-0.1
			l-0.5-0.6l-0.3-0.8l0.1-3l-0.3-1l-0.6-0.7l-0.7-0.4l-0.8-0.2l-0.8,0l-1.2,0.9l-1.7,0.9l-2.6-0.1l-1.7-0.2l-0.8-0.2l-3.4-1.4
			l-0.7,0l-1.3-0.6l-1.5-0.5l-2.5,0.9l-1.1-0.2l-1.5-0.7l-0.5,0.2l-1.7,2.3l-2.9,2.4l-1.6,0.4l-0.7-2.4l-0.7-1l-0.3-0.1l-0.7-0.3
			l-0.6,0.2l-1.7,1.7l-2.8,1l-2.3,0.6l-3.7,0.7l-2.8,0.4l-1.2,0l-2.6-0.3l-2.3-0.5l-2.3,0l-1.8,0.2l-4.1,1.8l-7,3.7L244,146l-3,0.7
			l-2.3,0.4l-4,0l-3.3-0.3l-2.3,0l-1.3-0.4l-1.8-1.5l-2.2-1.5l-1-0.3l-1.3-0.3l-1.8-0.2l-4.6,2.2l-1.4,0.6l-1.6,0.4l-3.2,1.3
			l-1.4,0.7l-1.8-0.1l-2.3-0.2l-2,0.1l-1.3-1l-0.7-1.1l-2.7-0.7l-1.9-0.2l-0.5,0.5l-0.5,1.5l-0.8,3.9l-0.2,1l1.7,3.9l-0.1,0.6
			l-1.2,0.2l-1.4,0.1l-0.9,0.3l-0.7,0.6l-0.4,3.3l-1.6,0.6l-0.8,0.7l-0.8,2.1l-0.4,0l-2.6-1.6l-1.2-0.1l1-1.6l-1.1-3.2l-1.2-3
			l1.2-1.9l2.4-2.3l2.5-2.7v-1.7l-0.1-1.3l-0.7-0.9l-1.4-1.2l-2.3,1.3l-1.7,1.4l-1.1,0.3l-1.2,0.8l-0.6,1.4l-1.4,1.1l-2.3,0.4
			l-3.5-1.2l-3.8-1.8l-2.1-1.5l-1.7-0.4l-1.7,0.6l-4.9,3.6l-4.5,5.3l-1.1,0.9l-4.2,2.3l-2.8,0.8l-1.3-0.2l-5.5,1l-2.8,0.1l-2.2,1.2
			l-4.2-1.3l-2.5-1.7l-1.5-1.7l-2.5-3.6l-1.8-1.7l-3.9-1.6l-6.9-3.8l-1.8-0.4l-4.7-0.5l-4.9-0.3l-1,1.4l-0.4,5.4l-0.8,1.5l-0.4,2.8
			l-0.6,0.8l-1,0.5l-1.5-0.9l-1-0.4l-2.4,1.2l-4.7,1.6l-1.6,0.2l-5.5-2l-2-1.3l-1.3-1.4l-0.4-2.5l-0.8-1.4l-0.1-1l-0.3-1.1l-1.1-0.4
			l-1.2,0.8l-1.3,0l-1.6-0.5l-3.8-2.1l-2.9-0.2l-1.8,2.5l-1.4,0.8l-1.5,0.2l-0.1-0.7l1.1-1.6l-4.5,0.3l-2.4,1.2l-1.9-0.2l-1.4-0.6
			l0.2-0.7l1.4-0.3l1.2-0.6l4.9-0.5l1.1-0.5l1.3-1.8l2.3-1.5l0.3-0.7h-1.8l-7.5,0.4l-5.2-0.2l-0.6,0.8l-0.8,0.1l-0.2-2.1l0.8-1
			l1.1,0.1l2.7-0.8l-0.2-1.7l-1.9-1.2l-0.4-0.7l-1.4-0.2l-1.1-0.8l-0.3-2.1l-0.9-2.3l-1.3-1.1l0.2-0.6l2.4-0.8l0.5-3.2l-0.4-2
			l-1.2-0.2l-3.5-1.6l-1.1,0.2l-1.2-1.7l-2-1.2l-1,0.5l-0.6,0.6l-0.9-0.3l-1.6-1.1l-1.5-0.6l-0.7-0.7l0.9-1.9l1.2,0l0.2-1.5
			l-0.9-2.5l0.1-1.3l1-0.4l1.2,0.2l1.2,1.5l0.4,1.4l-0.3,1.4l0.7,1.4l0.5,0.3l0.4-1.4l0.5-0.3l0.7,0.6l1.5,0.3l3.8-0.9l0.7-0.7
			l-2.8,0.1l-1-0.7l-1.1-1.6l-0.7-1.4l-0.1-0.7l-0.4-1l0.4-0.5l1.9-0.8l1.7-2.3l-0.7-0.7l-0.8-0.3l-0.9,0.2l-0.8-0.8l-0.1-1.1
			l0.7-0.9l0.1-1.2l-2.2-3l-0.6-0.7l0.5-1l1.7-1.7l1.6-2l-0.2-0.7l-1.2-0.3L30.6,89l-2.2,0.8l-3.8,0.4L24.4,89l0.1-1l0.9-1.8
			l-0.1-4.5l0.5-2.5l2.1-0.7l2.6-3.6l4.2-4.3l4.4,0.1l1.8-1.2l2.6-0.1l0.5,0.9l0.3,0.8l2.3,1.2l4.1-0.2l1-0.5l1-0.6l-1.9-2.1
			l0.6-0.6l1.7-0.1l1.9,0.5l0.1,0.5l-0.5,0.7L54,70.9l0.5,0.2l5.3-0.7l5.5,0.6l1.8-0.3l4.3,0l0.8-0.7l-1.3-0.9l-1.3-0.3l-0.9-0.4
			l-0.9-0.6l2.8-2l1.6-0.4l7.3-1.3l5.5-0.6l0.1-0.5h-0.8l-7-1.1L75.5,61l-2.4-1.9l-0.5-0.5l-0.6-0.9l0.4-2l0.4-1.6l0.9-0.9l2.8-0.1
			l9.7,1.6l6.9-1l7.5,2.4l7.2-0.5l1.5-1.1l1.8-3.5l10.2-5.8l3.6-3l3.8-1.7l6.5-1.8l5.5-2.4l1.6-0.3l13.1,1.2l9,0.2l4.1-2.3l2.4,0.8
			l-0.2,0.8l-0.4,0.7l0.1,1.4l1.4,2.1l1.4,1.4l4.2,2l5.8-1.7l0.9,0.2l1.2,0.5l2.1,5.5l1.6,1.9l2.1,1.3l1.7,0.3l1.2-1.4l1-0.6
			l2.1-0.2l3.5,1.9l1.2,2l5.9,1.5l5.4,0.8l2.3,1.6l7.6,1.6l2.8-0.3l4.8-1.7l9.3-1.9l6.2,2.6l1.7,0.3l1.4-0.2l2.1,0.7l2.2-0.4
			l6.8-3.1l2.1-1.8l2.3-0.5l2-1.1l5.3-3.5L273.5,46.7L273.5,46.7z M22.3,76.1l-3.7,0.6l-1.2-0.6l1.2-1.3l2.2-0.8l0.7-0.1l1,1.3
			L22.3,76.1L22.3,76.1z"/>
		<path class="st2" d="M460.6,510.3l-8.1,3l-2.1,1.3l-2,1.6l-1.5,2l-1,3.6l0.8,3.3l-0.1,1.8l-2.1,1.2l-2,0.8l-2.2,1.3l-1.3,0.3
			l-1.1,1l-1.3,0.7l-4.5,1.8l-5,1.4l-7.9,1.7l-3,1.9l-2.8,1.3l-4.2,0.4l-5.8,1.8l-3.2,1.4l-4,2.3l-0.9,0.7l-0.7,1.7l-1.2,1.4
			l-2.4,2.4l-1.8,1.2l-1.2,0.1l-2.3,0.7l-2.8,0.1l-4.7-0.8l-1.2,0.6l-1,0.9l-3.6,1.6l-3.6,3.3l-2.7,0.9l-4.3,1l-3,1.4l-2,0.5
			l-2.6,0.3l-4.8-0.1l-4.6,0.5l-4.2,0.9l-2,1.7l-2.3,2.8l-3.7,1.1l-0.9,1l-1.1,2l-2.4,0.5l-2.2,0.3l-2.2-0.9l-4.2,2.4l-1.6,0.4
			l-2.4,0.1l-1.7,0.5l-1.2-0.1l-1.5-1l-3.2-1.2l-2.4,0.8l-0.2-2.3l-3.9-7.1l0.8-6.2v-0.9l-0.8-2.8l-2.3-2.5l0.1-3.2l-0.8-2.3
			l-0.6-2.3l0.2-0.6l0-0.6l-1.2-3.6l-0.4-0.7l-0.2-0.8l0.4-0.6v-0.7l-0.6-1.1l-0.7-2.1l-3.2-1.7l0.6-1.6l0.6,0.5l0.8,0.5l0.2-1v-0.8
			l-1.3-4.7l2-6.3l-0.6-5.7l3-2.3l0.8-0.7l0.4-0.6l0.7-1.3l1-0.4l0.3-1.4l0-0.7L300,507l-0.5-1.6l0.2-2l0.2-0.8l0.3-1.5l1.1-0.6
			l0.3-0.5l-0.8-1l0.1-0.6l1.8-1.6l0.7-0.5l1.2-0.5h0.9l1.1,0.3l0.9,0.5l0.9,0.8l1,1l1.5,0.4l1-0.1l0.8,0.4l0.7-0.2l0.8-0.5l1.3,0
			l1.1-0.6l3.2-0.3l3.1,0.2l3.2-0.5l3.2,0l3.3,0l0.7,0.1l0.7,0.3l2.8,1.4l2.1,0.3l4.2,0.4l4.5,0.4l3.9,0.4l3.3-0.3l2.7-0.3l0.7,0
			l0.8,0.9l1.6,2.2l1.5,2.1l2.7,0.1l1.7-0.8l1.9-1.1l1.2-0.9l1.4-3.4l0.9-2.2l2-2.5l1.7-2.1l2.2-2.8l1.2-1.5l2.4-3l2.3-1.2l4.5-2.3
			l4.4-2.2l2.9-1.5l2.4-0.7l4.1-0.6l4.8-0.7l4.8-0.7l5.1-0.7l5.7-0.8l3.9-0.6l5-0.7l4.1-0.6l3.7-0.5l3.8-0.5l0.7,1.7l0.7,1.7
			l0.7,1.7l0.7,1.7l0.7,1.7l0.7,1.7l0.7,1.7l0.7,1.7l0.7,1.7l0.7,1.7l0.7,1.7l0.7,1.7l0.7,1.7l0.7,1.7l0.7,1.7l0.7,1.7l0.7,1.6
			l1.1,0.5l0.7,1.6l1,2.2l1,2.2l1,2.2L460.6,510.3L460.6,510.3z M291,532.8l-0.5,0.4l-0.2-0.6l0.3-1.4l0.5-0.4l0.4,1.1l-0.2,0.6
			L291,532.8z M294.1,554.9l-0.2,0.4l-0.3-0.1l-1-0.9l1.1-1l0.6,0.9L294.1,554.9L294.1,554.9z M293.6,559.3l-1.1,0.5l0.7-1.3
			l0.7-0.3l0.2,0.1L293.6,559.3L293.6,559.3z M471.6,577l1,0.2l1.5-0.6l4.3-0.1l5.2,1.8l-1,0.5l-0.6,0.7l-2.3,0.6l-2.3,1.4l-6.6,0.7
			l-2-0.4l-1.6-1.4l-3-1.8l1.2-1.1l0.3-0.5l0.4-0.5l1.7-0.9l1.7,0.1L471.6,577L471.6,577z"/>
		<path class="st3" d="M418,336.7l-0.3,0.9l-0.3-0.3l-0.8-1.5l0.2-1l-0.4-1.5l0.2-0.4l0.9-0.2l0.2,0.1l-0.3,0.5l0.5,0.8l0.1,1.4
			L418,336.7L418,336.7z"/>
		<path class="st1" d="M378.3,276.1l-0.1,0.6l0.5,1.9l1.1,2l0.9,1.6l0.1,0.8l-0.8-0.1l-0.6-0.3l-1.2-0.3l-2.3,2.2l-1.4,1.2l0,0.4
			l1.9,0.5h1.4l0.9-0.3l0.8,0.5l0.5,1.3l0.2,1.1l1.3,3.8l1,1.3l1.3,2.3l0.5,1.2l0.3,1l0.8,1.5l-2.6,0l-3.3,0.1l-2.7,0l-3,0l-1.3-1.6
			l-0.4-1.7l-0.5-1.8l-1.3-2.5l-4.4-0.6l-2.4-0.3l-3.9-0.5l-2.9-0.4l2.5-2.7l1.1-1.5l2.1-3.2l1.1-2.3l1-2.5l0.9-2l0.2-0.4l0.5-0.7
			l1.1-0.7l1.6-0.6l2.8-0.3l2,0l0.4,0l1.2,0.3L378.3,276.1L378.3,276.1z M382.8,282.1l-0.9,0.4l-0.6-0.2l-0.6-0.9l-0.9-2.2l0.5-0.8
			l0-0.4l0.1-0.3l0.3-0.2l0.3-1.1l0.4-0.3l0.6,0.7l1.8,2.6v1.1l-0.1,0.4L382.8,282.1L382.8,282.1z"/>
	</g>
</g>
</svg>
