<svg width="190" height="40" viewBox="0 0 190 40" fill="none" xmlns="http://www.w3.org/2000/svg">
<path d="M183.192 3.07568L187.206 33.0019L157.357 37.1453L133.385 37.8268L114.275 38.7643L112.091 8.0937L132.293 7.17014L153.48 6.71535L183.192 3.07568Z" fill="#F4EDE3"/>
<path d="M183.192 3.07568L187.206 33.0019L157.357 37.1453L133.385 37.8268L114.275 38.7643L112.091 8.0937L132.293 7.17014L153.48 6.71535L183.192 3.07568Z" stroke="#411517" stroke-width="2.36208" stroke-miterlimit="10"/>
<path d="M149.696 25.2342C150.123 25.0047 150.44 24.7206 150.648 24.3806L150.585 23.3577C149.857 22.9281 149.047 22.742 148.153 22.7965C147.583 22.8315 147.153 22.9799 146.859 23.2415C146.565 23.5046 146.432 23.8712 146.461 24.3414C146.488 24.7808 146.659 25.1124 146.975 25.3377C147.29 25.563 147.732 25.6596 148.301 25.6246C148.805 25.5938 149.27 25.4637 149.696 25.2342ZM143.583 27.4899C142.638 26.8378 142.127 25.8779 142.049 24.6101C141.969 23.2947 142.342 22.2564 143.169 21.4966C143.994 20.7367 145.22 20.3071 146.845 20.2092C147.479 20.17 148.117 20.2008 148.759 20.3015C149.401 20.4009 149.96 20.566 150.426 20.7507C150.396 20.1532 150.337 19.7656 149.848 19.4423C148.89 18.6951 145.818 18.6643 143.78 19.5375L143.754 19.5487C143.677 18.2767 143.588 17.5994 144.094 17.0285C144.753 16.284 145.552 15.979 147.97 15.8321C150.147 15.6991 151.651 16.0252 152.817 16.8256C153.983 17.6274 154.614 18.8084 154.708 20.3687L155.034 25.7184C155.12 27.1527 154.64 27.5165 153.454 27.5893L150.823 27.7488L150.763 26.7497C150.768 26.7833 150.63 26.933 150.602 26.9624C150.088 27.5165 149.456 27.8873 148.73 28.093C147.925 28.3211 147.048 28.3911 146.214 28.3393C145.504 28.2959 144.797 28.1406 144.157 27.8286C143.956 27.7306 143.765 27.6187 143.581 27.4927" fill="#411517"/>
<path d="M173.193 17.3337L176.239 17.149L176.151 15.7091C176.097 14.8177 175.333 14.1824 174.441 14.237L173.01 14.3237C172.984 13.9081 172.843 11.5866 172.843 11.5866C172.843 11.5866 172.734 9.79967 172.706 9.33789C171.528 9.40926 170.191 9.44844 169.236 10.5273C168.326 11.5614 168.567 12.7775 168.677 14.5868C168.309 14.6092 165.623 14.7729 165.623 14.7729L165.708 16.1694C165.762 17.0608 166.529 17.7409 167.421 17.6863L168.862 17.5982L168.994 19.7741L169.168 22.3349C169.339 24.9055 171.556 26.859 174.131 26.7022C175.046 26.6463 175.882 26.3314 176.577 25.8333L176.406 23.0276C174.724 23.7482 173.512 22.5672 173.418 21.0209C173.406 20.8124 173.194 17.3351 173.194 17.3351L173.193 17.3337Z" fill="#411517"/>
<path d="M129.134 29.0795L128.648 21.0963C128.621 20.6569 128.466 20.3253 128.181 20.0972C127.895 19.8691 127.495 19.7474 126.986 19.8033C126.221 19.8859 125.613 20.2134 125.273 21.0096L125.691 27.8929C125.737 28.6625 125.152 29.323 124.383 29.3706L121.479 29.5469L120.854 19.2688C120.767 17.8345 121.196 17.4735 122.264 17.4091L124.737 17.258L124.803 18.3438C124.803 18.3438 125.786 17.1796 128.003 17.0453C130.219 16.9109 131.584 18.2039 131.584 18.2039C131.584 18.2039 132.961 16.743 135.446 16.5919C137.931 16.4407 140.255 17.6708 140.461 21.0432L140.822 26.9707C140.868 27.7404 140.283 28.4009 139.514 28.4484L136.697 28.6192L136.211 20.6359C136.185 20.1966 136.029 19.8649 135.744 19.6368C135.459 19.4087 135.058 19.287 134.549 19.343C133.785 19.4255 133.176 19.753 132.836 20.5492L133.255 27.4325C133.301 28.2022 132.716 28.8626 131.946 28.9102L129.132 29.0809L129.134 29.0795Z" fill="#411517"/>
<path d="M160.127 16.4172L160.047 15.1088L157.841 15.2432C156.654 15.3159 156.174 15.6798 156.261 17.1141L156.886 27.3922L161.177 27.1319L160.791 20.7859C160.725 19.7098 161.952 18.1076 164.643 18.4868L164.422 14.8583C161.518 14.4036 160.127 16.4186 160.127 16.4186" fill="#411517"/>
<path d="M8.28529 36.3185L3 5.44639L41.6329 1.18262L78.9923 2.22232L105.157 2.35526L105.475 33.1015L78.1779 32.9685L43.7682 32.1149L8.28529 36.3185Z" fill="#FF5900"/>
<path d="M8.28529 36.3185L3 5.44639L41.6329 1.18262L78.9923 2.22232L105.157 2.35526L105.475 33.1015L78.1779 32.9685L43.7682 32.1149L8.28529 36.3185Z" stroke="#411517" stroke-width="2.36208" stroke-miterlimit="10"/>
<path d="M41.3476 26.007V8.35574C40.1693 8.35574 38.8343 8.31236 37.817 9.33107C36.8473 10.305 37.0138 11.5378 37.0138 13.3472V19.2076L37.0334 26.0083H41.3462L41.3476 26.007Z" fill="#F4EDE3"/>
<path d="M71.1786 16.9281C70.658 15.9779 69.9318 15.2419 68.997 14.7213C68.0622 14.2022 66.9778 13.9419 65.7435 13.9419C64.9641 13.9419 64.2197 14.0594 63.513 14.2959C62.8063 14.5324 62.2172 14.8529 61.747 15.2573V8.35574C60.58 8.35574 59.259 8.31236 58.2529 9.32967C57.293 10.3036 57.4581 11.5364 57.4581 13.3458V26.0056H61.5749L61.6001 24.8357C62.6874 25.8586 64.0699 26.3708 65.7435 26.3708C66.9624 26.3708 68.0427 26.1147 68.9844 25.6025C69.9262 25.0904 70.658 24.3683 71.1786 23.4336C71.6991 22.5002 71.958 21.4143 71.958 20.1801C71.958 18.9459 71.6977 17.8768 71.1786 16.9267M66.7427 22.2889C66.2067 22.8011 65.4987 23.0558 64.6213 23.0558C63.972 23.0558 63.3857 22.8892 62.8665 22.5562C62.346 22.2231 61.9723 21.7726 61.7456 21.203V19.1306C61.9737 18.5625 62.346 18.1119 62.8665 17.7775C63.3857 17.4444 63.972 17.2779 64.6213 17.2779C65.4987 17.2779 66.2053 17.5382 66.7427 18.0573C67.2786 18.5779 67.5473 19.2845 67.5473 20.1787C67.5473 21.0729 67.2786 21.7754 66.7427 22.2875" fill="#F4EDE3"/>
<path d="M30.087 23.4417C30.525 23.2388 30.858 22.9743 31.0861 22.6497V21.6268C30.3878 21.1552 29.5902 20.9201 28.6974 20.9201C28.1279 20.9201 27.6899 21.0418 27.3807 21.2853C27.0714 21.5288 26.9175 21.887 26.9175 22.3572C26.9175 22.7966 27.0672 23.1366 27.3681 23.3815C27.6689 23.625 28.1027 23.7468 28.6722 23.7468C29.176 23.7468 29.6476 23.6446 30.0856 23.4417M23.8585 25.3182C22.956 24.6115 22.5054 23.625 22.5054 22.3572C22.5054 21.0894 22.9392 20.0301 23.8096 19.3221C24.6785 18.6154 25.9253 18.2614 27.55 18.2614C28.1839 18.2614 28.8178 18.3313 29.4517 18.4685C30.0856 18.607 30.6313 18.8043 31.0847 19.017C31.0917 18.4209 31.0567 18.0305 30.5879 17.6778C29.6798 16.876 26.6194 16.6591 24.5372 17.405L24.5106 17.4134C24.5106 16.1414 24.4644 15.4613 25.0018 14.9239C25.7029 14.2229 26.5173 13.9668 28.9353 13.9668C31.1127 13.9668 32.5918 14.3824 33.7042 15.2514C34.8167 16.1204 35.3737 17.335 35.3737 18.8953V24.2449C35.3737 25.6792 34.8727 26.0123 33.6861 26.0123H31.0553V25.0132C31.0581 25.0467 30.9112 25.1881 30.8832 25.2161C30.3388 25.7366 29.6854 26.0682 28.9493 26.2278C28.1335 26.4055 27.2547 26.4223 26.4277 26.3201C25.7238 26.2334 25.0284 26.0361 24.4085 25.6862C24.2154 25.5771 24.0306 25.4539 23.8557 25.3168" fill="#F4EDE3"/>
<path d="M18.6068 17.0317H21.6531V15.5918C21.6531 14.7004 20.9296 14.0217 20.0383 14.0217H18.6068V9.03591C17.4285 9.03591 16.0949 8.99253 15.0762 10.0112C14.1065 10.9852 14.273 12.2124 14.273 14.0217H11.2183V15.4183C11.2183 16.3097 11.9417 17.0331 12.8331 17.0331H14.273V19.2091L14.2926 21.7713C14.308 24.3432 16.3958 26.4227 18.972 26.4227C19.8871 26.4227 20.7407 26.1596 21.4614 25.7048V22.8991C19.7416 23.5148 18.6068 22.2652 18.6068 20.719V17.0345V17.0317Z" fill="#F4EDE3"/>
<path d="M92.9969 17.0317H96.0432V15.5918C96.0432 14.7004 95.3198 14.0217 94.4284 14.0217H92.9969V9.03591C91.8186 9.03591 90.4851 8.99253 89.4664 10.0112C88.4966 10.9852 88.6631 12.2124 88.6631 14.0217H85.6084V15.4183C85.6084 16.3097 86.3319 17.0331 87.2232 17.0331H88.6631V19.2091L88.6827 21.7713C88.6981 24.3432 90.7859 26.4227 93.3621 26.4227C94.2773 26.4227 95.1309 26.1596 95.8515 25.7048V22.8991C94.1318 23.5148 92.9969 22.2652 92.9969 20.719V17.0345V17.0317Z" fill="#F4EDE3"/>
<path d="M50.4503 23.4417C50.8882 23.2388 51.2213 22.9743 51.4494 22.6497V21.6268C50.7511 21.1552 49.9535 20.9201 49.0607 20.9201C48.4912 20.9201 48.0532 21.0418 47.7439 21.2853C47.4347 21.5288 47.2808 21.887 47.2808 22.3572C47.2808 22.7966 47.4305 23.1366 47.7313 23.3815C48.0322 23.625 48.466 23.7468 49.0355 23.7468C49.5393 23.7468 50.0109 23.6446 50.4489 23.4417M44.2218 25.3182C43.3192 24.6115 42.8687 23.625 42.8687 22.3572C42.8687 21.0894 43.3024 20.0301 44.1728 19.3221C45.0418 18.6154 46.2886 18.2614 47.9133 18.2614C48.5472 18.2614 49.1811 18.3313 49.815 18.4685C50.4489 18.607 50.9946 18.8043 51.448 19.017C51.455 18.4209 51.42 18.0305 50.9512 17.6778C50.0416 16.876 46.9827 16.6591 44.9005 17.405L44.8739 17.4134C44.8739 16.1414 44.8277 15.4613 45.3651 14.9239C46.0661 14.2229 46.8805 13.9668 49.2986 13.9668C51.476 13.9668 52.9551 14.3824 54.0675 15.2514C55.18 16.1204 55.7369 17.335 55.7369 18.8953V24.2449C55.7369 25.6792 55.236 26.0123 54.0493 26.0123H51.4186V25.0132C51.4214 25.0467 51.2745 25.1881 51.2465 25.2161C50.7021 25.7366 50.0486 26.0682 49.3126 26.2278C48.4968 26.4055 47.618 26.4223 46.791 26.3201C46.0871 26.2334 45.3917 26.0361 44.7717 25.6862C44.5786 25.5771 44.3939 25.4539 44.219 25.3168" fill="#F4EDE3"/>
<path d="M80.1651 23.4417C80.6031 23.2388 80.9361 22.9743 81.1642 22.6497V21.6268C80.4659 21.1552 79.6683 20.9201 78.7756 20.9201C78.206 20.9201 77.768 21.0418 77.4588 21.2853C77.1495 21.5288 76.9956 21.887 76.9956 22.3572C76.9956 22.7966 77.1453 23.1366 77.4462 23.3815C77.747 23.625 78.1808 23.7468 78.7504 23.7468C79.2541 23.7468 79.7257 23.6446 80.1637 23.4417M73.9367 25.3182C73.0341 24.6115 72.5835 23.625 72.5835 22.3572C72.5835 21.0894 73.0173 20.0301 73.8877 19.3221C74.7567 18.6154 76.0035 18.2614 77.6281 18.2614C78.262 18.2614 78.8959 18.3313 79.5298 18.4685C80.1637 18.607 80.7094 18.8043 81.1628 19.017C81.1698 18.4209 81.1348 18.0305 80.6661 17.6778C79.7565 16.876 76.6975 16.6591 74.6153 17.405L74.5887 17.4134C74.5887 16.1414 74.5426 15.4613 75.0799 14.9239C75.781 14.2229 76.5954 13.9668 79.0134 13.9668C81.1908 13.9668 82.6699 14.3824 83.7824 15.2514C84.8948 16.1204 85.4518 17.335 85.4518 18.8953V24.2449C85.4518 25.6792 84.9508 26.0123 83.7642 26.0123H81.1334V25.0132C81.1362 25.0467 80.9893 25.1881 80.9613 25.2161C80.417 25.7366 79.7635 26.0682 79.0274 26.2278C78.2116 26.4055 77.3328 26.4223 76.5058 26.3201C75.802 26.2334 75.1065 26.0361 74.4866 25.6862C74.2935 25.5771 74.1088 25.4539 73.9339 25.3168" fill="#F4EDE3"/>
</svg>
